<?xml version="1.0" encoding="utf-8"?>
<!-- Generator: Adobe Illustrator 25.0.0, SVG Export Plug-In . SVG Version: 6.00 Build 0)  -->
<svg version="1.1" id="Calque_1" xmlns="http://www.w3.org/2000/svg" xmlns:xlink="http://www.w3.org/1999/xlink" x="0px" y="0px"
	 viewBox="0 0 1023.26 644" style="enable-background:new 0 0 1023.26 644;" xml:space="preserve">
<style type="text/css">
	.st0{fill:#F4F4F4;}
</style>
<path id="behance" class="st0" d="M303.03,0.01c28.18-0.24,56.3,2.49,83.91,8.13c23.17,4.52,45.23,13.56,64.92,26.58
	c18.08,12.4,32.56,29.36,41.96,49.17c10.63,23.81,15.72,49.72,14.9,75.78c1.02,28.69-6.74,57.01-22.23,81.18
	c-16.66,23.24-39.22,41.61-65.36,53.2c35.83,8.77,67.37,30.03,88.93,59.96c35.02,56.75,38.94,127.37,10.42,187.64
	c-12.1,23.18-29.58,43.12-50.98,58.15c-22.15,15.41-46.9,26.72-73.05,33.38c-27.51,7.22-55.85,10.85-84.29,10.8H0V0.01H303.03z
	 M285.02,260.64c22.16,0.92,44.01-5.41,62.25-18.01c17.3-14.31,26.4-36.25,24.33-58.6c0.5-12.81-2.3-25.52-8.13-36.94
	c-5.09-9.31-12.57-17.1-21.66-22.58c-9.6-5.6-20.13-9.41-31.09-11.24c-12.07-2.14-24.3-3.2-36.56-3.18H141.65v150.64h143.37
	L285.02,260.64z M293.16,533.79c13.33,0.05,26.62-1.3,39.67-4.03c11.87-2.4,23.19-6.99,33.38-13.53
	c9.74-6.46,17.66-15.31,23.03-25.69c6.16-12.94,9.1-27.19,8.58-41.51c2.64-26.72-7.78-53.07-27.98-70.76
	c-21.63-15.05-47.63-22.51-73.94-21.22H141.65v176.78h151.5L293.16,533.79z M717.55,520.26c43.21,33.87,102.93,37.29,149.72,8.58
	c15.78-9.36,27.87-23.84,34.27-41.04h112.72c-12.75,48.47-42.13,90.92-82.99,119.93c-40.61,24.98-87.64,37.54-135.3,36.11
	c-33.88,0.5-67.54-5.46-99.19-17.56c-28.34-10.98-53.9-28.08-74.86-50.09c-20.91-22.34-37.02-48.73-47.36-77.53
	c-11.38-31.82-17.02-65.4-16.64-99.19c-0.29-33.23,5.51-66.24,17.12-97.38c21.59-58.58,66.49-105.6,124.03-129.84
	c30.66-12.96,63.68-19.45,96.97-19.06c35.93-0.84,71.53,7.06,103.73,23.03c28.66,14.67,53.51,35.82,72.57,61.78
	c19.25,26.54,33.19,56.55,41.03,88.39c8.49,33.88,11.54,68.89,9.05,103.73H686.04c-1.38,32.91,9.88,65.1,31.48,89.98L717.55,520.26z
	 M862.31,274.97c-18.57-18.08-44.03-27.28-69.87-25.25c-17.52-0.59-34.93,2.96-50.82,10.35c-12.54,6.14-23.61,14.9-32.46,25.69
	c-7.79,9.59-13.61,20.62-17.12,32.46c-3.04,9.98-5,20.25-5.84,30.65h208.32c-3.69-27.11-14.78-52.68-32.05-73.91L862.31,274.97z
	 M664.09,32.6h260.44v72.19H664.09V32.6z"/>
</svg>
