<?xml version="1.0" encoding="utf-8"?>
<!-- Generator: Adobe Illustrator 25.0.0, SVG Export Plug-In . SVG Version: 6.00 Build 0)  -->
<svg version="1.1" id="Calque_1" xmlns="http://www.w3.org/2000/svg" xmlns:xlink="http://www.w3.org/1999/xlink" x="0px" y="0px"
	 viewBox="0 0 503.8 497.22" style="enable-background:new 0 0 503.8 497.22;" xml:space="preserve">
<style type="text/css">
	.st0{fill:#3B485B;}
	.st1{fill:#D3D3D3;}
	.st2{fill:#FF0000;}
</style>
<g>
	<path class="st1" d="M221.92,105.91l-5.79,1.56l-0.06-0.22c-0.12-0.43-0.13-0.75-0.05-0.94c0.16-0.35,0.41-0.59,0.76-0.73
		l0.93-0.31l-1.8-6.68l-8.27,2.23l1.79,6.62l2.02-0.37c0.39,1,0.17,1.61-0.64,1.83l-5.76,1.55l-0.06-0.22
		c-0.23-0.85,0-1.4,0.68-1.66l0.93-0.31l-4.07-15.08l-1.99,0.36c-0.39-1-0.18-1.6,0.61-1.82l5.79-1.56l0.06,0.22
		c0.23,0.85,0,1.4-0.68,1.66l-0.96,0.32l1.84,6.81l8.27-2.23l-1.82-6.76l-1.99,0.36c-0.39-1-0.18-1.6,0.61-1.82l5.76-1.55l0.06,0.22
		c0.23,0.85,0,1.4-0.68,1.66l-0.93,0.31l4.07,15.08l1.99-0.36C222.91,105.09,222.71,105.7,221.92,105.91z"/>
	<path class="st1" d="M221.59,86.54l16.18-2.2l0.5,3.69c0.07,0.52-0.1,0.86-0.51,1.03c-0.27,0.11-0.57,0.19-0.9,0.24l-0.65-2.88
		l-4.83,0.66l2.08,15.34l2.24-0.13c0.25,1.04-0.03,1.61-0.84,1.72l-6.33,0.86l-0.03-0.22c-0.12-0.87,0.18-1.39,0.89-1.56l1.19-0.22
		l-2.09-15.4l-4.86,0.66l0.17,2.94c-0.76,0.1-1.25,0.03-1.47-0.22c-0.13-0.15-0.22-0.36-0.25-0.62L221.59,86.54z"/>
	<path class="st1" d="M262.88,103.21l-5.91-0.1l0-0.22c0.01-0.88,0.38-1.35,1.11-1.41l0.93-0.04l-0.78-14.01l-5.33,12.43
		c-0.6,0.18-1.12,0.21-1.57,0.09l-5.24-12.18l-1.14,13.4l2.18,0.2c0.09,1.07-0.27,1.59-1.09,1.58l-5.46-0.09l0-0.22
		c0.01-0.88,0.39-1.35,1.12-1.41l1.18-0.04l1.35-15.6l-1.93-0.2c-0.09-1.08,0.27-1.62,1.09-1.61l4.23,0.07l5.04,11.84l4.81-11.68
		l4.51,0.07c0.84,0.01,1.19,0.56,1.06,1.64l-1.96,0.14l0.92,15.56l1.96,0.23C264.06,102.7,263.7,103.22,262.88,103.21z"/>
	<path class="st1" d="M278.97,100.74l-0.61,4.52l-13.4-1.8l0.03-0.22c0.12-0.87,0.54-1.29,1.27-1.27l0.98,0.07l2.07-15.49
		l-1.95-0.43c0.03-1.09,0.46-1.58,1.27-1.47l6.33,0.85l-0.03,0.19c-0.09,0.67-0.34,1.08-0.76,1.25c-0.16,0.05-0.33,0.07-0.51,0.04
		l-1.4-0.1l-0.03,0l-2.07,15.49l6.49,0.7l0.86-3.5C278.58,99.61,279.07,100,278.97,100.74z"/>
	<path class="st1" d="M297.28,93.69l4.28-0.88c0.13,0.35,0.19,0.83,0.19,1.46c-0.01,0.62-0.07,1.13-0.18,1.52l-4.36-0.86l2.29,3.76
		c-0.29,0.27-0.73,0.5-1.32,0.71c-0.59,0.21-1.09,0.3-1.51,0.28l-0.57-4.25l-2.7,3.27c-0.35-0.2-0.73-0.55-1.12-1.04
		c-0.4-0.5-0.64-0.93-0.73-1.31l3.89-1.93l-4.11-1.6c0.12-0.43,0.35-0.91,0.67-1.44s0.63-0.89,0.95-1.1l3.12,3.1l0.35-4.42
		c0.42-0.03,0.91,0.04,1.48,0.23c0.57,0.19,1.02,0.4,1.36,0.63L297.28,93.69z"/>
	<path class="st1" d="M311.8,98.71l4.35-0.47c0.1,0.36,0.11,0.85,0.05,1.47c-0.06,0.62-0.17,1.12-0.33,1.5l-4.25-1.27l1.92,3.96
		c-0.32,0.24-0.77,0.43-1.38,0.58c-0.6,0.15-1.11,0.19-1.53,0.13l-0.16-4.28l-3,2.99c-0.33-0.23-0.67-0.61-1.02-1.15
		c-0.35-0.53-0.55-0.99-0.6-1.37l4.05-1.55l-3.94-1.99c0.17-0.42,0.43-0.87,0.8-1.37c0.37-0.5,0.72-0.83,1.05-1l2.81,3.38l0.78-4.36
		c0.42,0.01,0.9,0.13,1.45,0.37c0.55,0.24,0.98,0.49,1.3,0.76L311.8,98.71z"/>
	<path class="st1" d="M325.81,105.12l4.37-0.05c0.06,0.37,0.03,0.86-0.09,1.46s-0.28,1.09-0.47,1.46l-4.11-1.68l1.53,4.13
		c-0.34,0.2-0.81,0.35-1.43,0.45c-0.62,0.09-1.13,0.09-1.53-0.02l0.25-4.28l-3.28,2.69c-0.31-0.26-0.61-0.68-0.91-1.24
		c-0.3-0.56-0.45-1.04-0.46-1.42l4.18-1.15l-3.73-2.36c0.21-0.4,0.51-0.83,0.93-1.28c0.41-0.46,0.79-0.76,1.14-0.89l2.47,3.64
		l1.19-4.27c0.42,0.05,0.89,0.22,1.41,0.51c0.52,0.29,0.93,0.58,1.22,0.88L325.81,105.12z"/>
	<path class="st1" d="M350.16,115.98c1.28,0.93,2.12,1.98,2.52,3.15c0.4,1.17,0.3,2.16-0.29,2.97c-0.4,0.54-0.87,0.84-1.42,0.88
		c-0.55,0.04-1.12-0.16-1.73-0.6c0.69-0.95,0.99-1.85,0.9-2.69c-0.09-0.84-0.58-1.58-1.45-2.22c-1.45-1.05-2.99-1.28-4.63-0.68
		c-1.64,0.6-3.17,1.88-4.6,3.85s-2.16,3.77-2.18,5.41c-0.02,1.63,0.79,3.05,2.45,4.25c1.65,1.2,3.39,1.76,5.21,1.67
		c0.12,0.32,0.07,0.62-0.14,0.9c-0.41,0.56-1.32,0.75-2.75,0.56c-1.43-0.18-2.83-0.78-4.22-1.79c-2.16-1.57-3.3-3.45-3.44-5.63
		c-0.13-2.18,0.69-4.52,2.46-7c1.77-2.48,3.85-4.04,6.23-4.66S347.82,114.28,350.16,115.98z"/>
	<path class="st1" d="M364.63,129.81c0.07,0.76-0.15,1.43-0.66,1.99s-1.04,0.84-1.6,0.82s-1.07-0.28-1.52-0.78
		c1.53-1.71,1.5-3.28-0.09-4.71c-0.72-0.65-1.46-1.01-2.22-1.09c-0.76-0.08-1.4,0.18-1.94,0.78c-0.41,0.46-0.62,0.95-0.61,1.48
		c0.01,0.21,0.02,0.39,0.02,0.52s0.04,0.34,0.12,0.6s0.14,0.46,0.17,0.59s0.11,0.34,0.23,0.64c0.12,0.3,0.21,0.5,0.25,0.62
		c0.28,0.5,0.49,0.96,0.65,1.37c0.85,1.87,1.33,3.34,1.43,4.4c0.1,1.07-0.3,2.1-1.2,3.1c-1.21,1.35-2.69,2.03-4.45,2.04
		c-1.76,0.02-3.45-0.71-5.07-2.17c-1.15-1.04-1.97-2.17-2.44-3.42s-0.34-2.28,0.41-3.11c0.42-0.47,0.92-0.72,1.5-0.74
		c0.57-0.02,1.17,0.24,1.78,0.79c-1.55,1.97-1.42,3.76,0.37,5.37c0.96,0.86,1.92,1.31,2.89,1.35s1.78-0.31,2.44-1.04
		c0.65-0.72,0.87-1.58,0.66-2.57c-0.12-0.54-0.26-1-0.41-1.39c-0.15-0.39-0.41-0.96-0.76-1.71c-0.35-0.75-0.61-1.33-0.77-1.72
		c-0.16-0.39-0.34-0.92-0.53-1.57c-0.19-0.65-0.28-1.19-0.27-1.63c0.05-1.11,0.44-2.09,1.19-2.92c1.11-1.24,2.43-1.78,3.95-1.63
		c1.52,0.15,2.93,0.8,4.24,1.94C363.71,127.17,364.47,128.44,364.63,129.81z"/>
	<path class="st1" d="M375.6,141.31c-0.01,0.77-0.29,1.4-0.85,1.92s-1.12,0.73-1.67,0.66c-0.56-0.07-1.04-0.38-1.44-0.92
		c1.69-1.55,1.81-3.12,0.36-4.7c-0.66-0.72-1.36-1.15-2.1-1.3c-0.75-0.15-1.42,0.04-2.01,0.59c-0.45,0.42-0.71,0.89-0.75,1.41
		c-0.01,0.21-0.02,0.39-0.03,0.52s0.01,0.34,0.06,0.61s0.09,0.47,0.11,0.6c0.02,0.13,0.08,0.35,0.17,0.66
		c0.09,0.31,0.16,0.52,0.19,0.64c0.23,0.52,0.4,1,0.51,1.43c0.67,1.94,1,3.45,0.99,4.52c-0.01,1.07-0.5,2.06-1.5,2.97
		c-1.33,1.22-2.88,1.76-4.63,1.6c-1.75-0.15-3.36-1.04-4.84-2.65c-1.05-1.14-1.75-2.35-2.1-3.64c-0.35-1.28-0.12-2.3,0.71-3.06
		c0.47-0.43,0.99-0.63,1.56-0.6c0.57,0.03,1.14,0.35,1.69,0.96c-1.73,1.81-1.78,3.61-0.15,5.38c0.87,0.95,1.79,1.49,2.74,1.62
		c0.96,0.13,1.8-0.13,2.53-0.8c0.71-0.66,1.02-1.49,0.9-2.5c-0.07-0.54-0.16-1.02-0.28-1.42c-0.12-0.4-0.31-0.99-0.59-1.78
		s-0.48-1.38-0.6-1.79c-0.12-0.41-0.25-0.95-0.38-1.61c-0.13-0.67-0.17-1.22-0.11-1.65c0.15-1.1,0.64-2.03,1.47-2.79
		c1.22-1.12,2.59-1.54,4.09-1.24s2.84,1.08,4.03,2.34C374.93,138.59,375.56,139.92,375.6,141.31z"/>
	<path class="st1" d="M385.4,158.12l3.86,2.05c-0.12,0.35-0.38,0.77-0.78,1.24c-0.4,0.47-0.77,0.83-1.11,1.06l-2.81-3.44l-0.63,4.35
		c-0.39,0.02-0.88-0.08-1.47-0.29c-0.58-0.21-1.03-0.46-1.34-0.75l2.27-3.64l-4.16,0.8c-0.14-0.38-0.21-0.88-0.2-1.52
		c0.01-0.64,0.1-1.13,0.27-1.47l4.22,0.99l-2.14-3.86c0.37-0.25,0.85-0.48,1.43-0.68s1.06-0.28,1.43-0.24l0.43,4.38l3.09-3.18
		c0.34,0.24,0.67,0.61,1,1.12s0.54,0.96,0.65,1.35L385.4,158.12z"/>
	<path class="st1" d="M393.4,171.25l3.65,2.41c-0.15,0.34-0.45,0.73-0.9,1.16c-0.44,0.43-0.85,0.75-1.21,0.95l-2.47-3.69l-1.04,4.27
		c-0.39-0.02-0.87-0.16-1.43-0.43c-0.56-0.27-0.98-0.56-1.26-0.87l2.61-3.4l-4.22,0.39c-0.11-0.39-0.12-0.9-0.06-1.53
		s0.21-1.11,0.41-1.44l4.11,1.39l-1.77-4.04c0.39-0.21,0.89-0.4,1.49-0.54c0.6-0.15,1.08-0.18,1.44-0.1l0.01,4.4l3.38-2.87
		c0.32,0.27,0.61,0.67,0.88,1.21c0.27,0.53,0.44,1,0.52,1.41L393.4,171.25z"/>
	<path class="st1" d="M400.11,185.12l3.4,2.75c-0.19,0.32-0.52,0.68-1,1.07c-0.48,0.39-0.91,0.67-1.29,0.83l-2.1-3.91l-1.45,4.15
		c-0.39-0.06-0.85-0.25-1.38-0.56c-0.53-0.32-0.92-0.65-1.17-0.99l2.92-3.14l-4.24-0.01c-0.07-0.4-0.04-0.91,0.09-1.53
		c0.13-0.62,0.31-1.09,0.55-1.39l3.96,1.78l-1.37-4.2c0.41-0.18,0.92-0.31,1.54-0.4c0.61-0.09,1.09-0.08,1.45,0.04l-0.41,4.38
		l3.64-2.53c0.29,0.3,0.55,0.73,0.76,1.29s0.34,1.04,0.38,1.45L400.11,185.12z"/>
	<path class="st1" d="M412.23,211.84l1.21,4.81l-0.22,0.05c-0.85,0.21-1.4-0.03-1.66-0.74l-0.21-0.61L393,213.69l-0.57-2.25
		l15.41-9.81l-0.25-1.67c1-0.37,1.61-0.15,1.81,0.64l1.45,5.78l-0.22,0.05c-0.43,0.11-0.75,0.12-0.94,0.03
		c-0.35-0.16-0.58-0.41-0.71-0.75l-0.3-0.96l-12.28,7.44l14.36,1.1l-0.36-2.1c0.18-0.06,0.36-0.11,0.54-0.15
		c0.18-0.04,0.42,0,0.71,0.11C411.95,211.27,412.14,211.5,412.23,211.84z"/>
	<path class="st1" d="M408.18,228.32l0.33-0.04c0.44-0.06,0.74-0.04,0.88,0.05c0.14,0.09,0.25,0.17,0.31,0.21
		c0.15,0.11,0.24,0.31,0.28,0.58l0.52,3.94l-12.1,1.59l0.06,0.9c0.05,0.56-0.42,0.9-1.42,1.03l-0.85-3.67l1.46-0.7
		c-1.34-1.16-2.1-2.44-2.28-3.84c-0.18-1.4,0.13-2.65,0.93-3.75c0.8-1.1,2.19-1.78,4.15-2.04l6.8-0.89l-0.21-2.06l0.25-0.03
		c0.94-0.12,1.46,0.17,1.55,0.87l0.5,3.83l-8.52,1.12c-2.37,0.31-3.43,1.44-3.17,3.38c0.14,1.05,0.66,2.01,1.56,2.87l9.19-1.21
		L408.18,228.32z"/>
	<path class="st1" d="M404.03,240.68l-0.53,0.02c-1.55,0.05-2.72,0.38-3.53,1.01c-0.8,0.62-1.18,1.63-1.14,3.02
		c0.04,1.39,0.59,2.7,1.63,3.94c-0.21,0.32-0.54,0.49-0.99,0.51c-0.6,0.02-1.21-0.48-1.83-1.48c-0.62-1.01-0.95-2.23-1-3.67
		c-0.06-1.92,0.48-3.44,1.61-4.55s2.89-1.7,5.28-1.77c2.39-0.07,4.29,0.47,5.71,1.64c1.42,1.17,2.16,2.67,2.21,4.51
		c0.06,1.84-0.45,3.19-1.53,4.07s-2.45,1.33-4.13,1.36l-1.51,0.05L404.03,240.68z M409.53,243.82c-0.05-1.7-1.33-2.7-3.82-3.02
		l0.17,5.65C408.37,246.32,409.58,245.44,409.53,243.82z"/>
	<path class="st1" d="M397.13,254.79c-0.36-0.39-0.53-0.85-0.51-1.39c0.02-0.54,0.22-0.99,0.61-1.35c0.39-0.36,0.85-0.53,1.39-0.51
		c0.54,0.02,1,0.22,1.37,0.61s0.54,0.85,0.53,1.39s-0.23,0.99-0.62,1.35c-0.4,0.36-0.86,0.53-1.41,0.51
		C397.94,255.38,397.49,255.17,397.13,254.79z"/>
	<path class="st1" d="M397.89,262.06c-2.57-0.21-4.48-0.84-5.73-1.89c-1.25-1.05-1.8-2.39-1.65-4.03c0.06-0.74,0.29-1.29,0.7-1.64
		c0.4-0.35,0.85-0.51,1.35-0.46s0.86,0.24,1.09,0.58s0.32,0.78,0.26,1.3c-0.95-0.04-1.46,0.31-1.52,1.05
		c-0.05,0.58,0.16,1.03,0.63,1.37c0.47,0.34,1.44,0.57,2.91,0.69l12.98,1.08l0.25-1.3c0.08-0.55,0.61-0.79,1.58-0.71l0.12,5.04
		L397.89,262.06z M415.78,260.61c0.32,0.37,0.45,0.82,0.41,1.34s-0.25,0.94-0.62,1.25s-0.81,0.45-1.33,0.41
		c-0.51-0.04-0.92-0.25-1.24-0.62c-0.32-0.37-0.45-0.82-0.41-1.34c0.04-0.52,0.25-0.94,0.62-1.25c0.37-0.32,0.81-0.45,1.33-0.41
		C415.05,260.03,415.47,260.24,415.78,260.61z"/>
	<path class="st1" d="M406.44,266.58c1.25,0.19,2.15,0.85,2.72,1.99c0.57,1.14,0.76,2.33,0.58,3.55s-0.53,2.2-1.04,2.93
		c-0.51,0.73-1.2,1.03-2.04,0.9c-0.59-0.09-1.01-0.35-1.26-0.78c-0.25-0.43-0.29-0.92-0.14-1.46c0.66,0.12,1.25-0.04,1.77-0.47
		s0.83-1,0.95-1.71c0.12-0.71,0.06-1.29-0.18-1.75c-0.23-0.46-0.59-0.72-1.07-0.8c-0.48-0.07-0.93,0.13-1.34,0.61
		c-0.41,0.48-0.88,1.16-1.4,2.06s-0.91,1.52-1.17,1.88s-0.59,0.73-0.99,1.13c-0.75,0.76-1.75,1.04-2.99,0.84s-2.22-0.86-2.96-2
		c-0.74-1.14-0.97-2.56-0.69-4.28c0.2-1.23,0.61-2.28,1.22-3.15s1.36-1.23,2.24-1.1c0.57,0.1,0.98,0.37,1.24,0.81
		c0.26,0.43,0.34,0.92,0.26,1.45c-0.87,0-1.58,0.25-2.15,0.73s-0.91,1.14-1.04,1.98c-0.13,0.84-0.08,1.53,0.16,2.08
		c0.24,0.54,0.66,0.86,1.26,0.95c0.6,0.09,1.09-0.06,1.47-0.46s0.8-1,1.28-1.82c0.47-0.82,0.84-1.43,1.12-1.84
		c0.28-0.41,0.63-0.83,1.05-1.26C404.15,266.73,405.2,266.39,406.44,266.58z"/>
	<path class="st1" d="M406.36,293.95l0.87,4.28c-0.35,0.13-0.83,0.19-1.46,0.19c-0.62-0.01-1.13-0.07-1.52-0.19l0.87-4.35
		l-3.76,2.28c-0.26-0.29-0.5-0.73-0.71-1.32c-0.21-0.59-0.3-1.09-0.27-1.51l4.25-0.56l-3.26-2.71c0.2-0.35,0.55-0.72,1.04-1.12
		c0.5-0.4,0.93-0.64,1.31-0.72l1.92,3.89l1.62-4.11c0.43,0.13,0.91,0.35,1.44,0.67c0.53,0.32,0.89,0.64,1.09,0.95l-3.11,3.11
		l4.42,0.36c0.03,0.42-0.04,0.91-0.23,1.48c-0.19,0.57-0.4,1.02-0.63,1.36L406.36,293.95z"/>
	<path class="st1" d="M401.3,308.45l0.46,4.35c-0.36,0.1-0.85,0.11-1.47,0.04c-0.62-0.07-1.12-0.18-1.5-0.33l1.29-4.25l-3.97,1.91
		c-0.23-0.32-0.43-0.78-0.58-1.38c-0.15-0.6-0.19-1.11-0.12-1.53l4.29-0.15l-2.99-3.01c0.23-0.33,0.62-0.67,1.15-1.02
		s0.99-0.55,1.37-0.6l1.54,4.06l2-3.93c0.42,0.17,0.87,0.43,1.37,0.8s0.83,0.72,1,1.05l-3.39,2.8l4.36,0.79
		c-0.01,0.42-0.13,0.9-0.37,1.45c-0.24,0.55-0.49,0.98-0.76,1.29L401.3,308.45z"/>
	<path class="st1" d="M394.85,322.44l0.04,4.37c-0.37,0.06-0.86,0.03-1.46-0.1c-0.61-0.13-1.09-0.28-1.46-0.47l1.69-4.11l-4.13,1.52
		c-0.2-0.34-0.35-0.81-0.44-1.43c-0.09-0.62-0.08-1.13,0.02-1.53l4.28,0.26l-2.68-3.28c0.26-0.3,0.68-0.61,1.24-0.9
		c0.56-0.3,1.04-0.45,1.42-0.46l1.14,4.19l2.37-3.72c0.4,0.21,0.82,0.52,1.28,0.93c0.46,0.42,0.75,0.8,0.89,1.14l-3.64,2.46
		l4.27,1.2c-0.05,0.42-0.22,0.89-0.51,1.41c-0.29,0.52-0.59,0.93-0.88,1.21L394.85,322.44z"/>
	<path class="st1" d="M388.24,340.19l-3.71,5.09c-1.35,1.85-2.79,2.99-4.3,3.42c-1.51,0.42-2.94,0.14-4.28-0.83
		c-1.69-1.23-2.55-2.74-2.6-4.51c-0.04-1.78,0.66-3.66,2.11-5.65l0.88-1.2l-4.5-3.29l-1.49,1.76c-0.93-0.54-1.14-1.14-0.65-1.82
		l3.67-5.02l0.18,0.13c0.71,0.52,0.88,1.09,0.51,1.72l-0.53,0.82l12.67,9.25l1.34-1.55C388.4,339.08,388.64,339.64,388.24,340.19z
		 M377.61,337.42l-0.69,0.95c-0.98,1.34-1.41,2.6-1.3,3.78s0.75,2.19,1.91,3.04s2.26,1.16,3.29,0.95s1.96-0.95,2.78-2.2l0.98-1.44
		L377.61,337.42z"/>
	<path class="st1" d="M352.25,353.48l4.1-4.37l0.16,0.15c0.33,0.31,0.51,0.57,0.54,0.78c0.05,0.38-0.04,0.72-0.26,1.02l-0.63,0.75
		l5.04,4.73l5.86-6.25l-5-4.69l-1.52,1.38c-0.85-0.65-0.99-1.28-0.42-1.89l4.08-4.35l0.16,0.15c0.64,0.6,0.74,1.19,0.29,1.77
		l-0.63,0.75l11.39,10.69l1.5-1.35c0.85,0.65,1,1.27,0.44,1.87l-4.1,4.37l-0.16-0.15c-0.64-0.6-0.74-1.19-0.29-1.77l0.65-0.77
		l-5.15-4.83l-5.86,6.25l5.11,4.79l1.5-1.36c0.85,0.65,1,1.27,0.44,1.87l-4.08,4.35l-0.16-0.15c-0.64-0.6-0.74-1.19-0.29-1.77
		l0.63-0.75l-11.39-10.69l-1.5,1.36C351.83,354.7,351.69,354.08,352.25,353.48z"/>
	<path class="st1" d="M361.56,370.75l-4.84,4.03c-1.76,1.47-3.43,2.22-5,2.27c-1.57,0.04-2.88-0.58-3.95-1.85
		c-1.34-1.61-1.81-3.28-1.42-5.01c0.39-1.73,1.53-3.39,3.43-4.96l1.14-0.95l-3.56-4.28l-1.87,1.34c-0.77-0.75-0.83-1.39-0.18-1.92
		l4.78-3.98l0.14,0.17c0.56,0.67,0.59,1.27,0.07,1.8l-0.72,0.67l10.03,12.05l1.68-1.18C361.98,369.72,362.07,370.32,361.56,370.75z
		 M351.92,365.47l-0.9,0.75c-1.28,1.06-2,2.18-2.19,3.35c-0.18,1.17,0.19,2.31,1.11,3.41c0.92,1.11,1.91,1.68,2.96,1.72
		c1.06,0.04,2.13-0.44,3.23-1.45l1.3-1.15L351.92,365.47z"/>
	<path class="st1" d="M334.74,386.31l-2.25,3.75c-0.35-0.14-0.75-0.42-1.2-0.85s-0.78-0.81-1-1.17l3.59-2.62l-4.31-0.87
		c0-0.39,0.12-0.88,0.37-1.45c0.24-0.57,0.52-1,0.82-1.29l3.51,2.46l-0.57-4.2c0.38-0.12,0.89-0.16,1.53-0.12
		c0.64,0.04,1.12,0.16,1.45,0.35l-1.22,4.17l3.97-1.93c0.23,0.38,0.43,0.87,0.61,1.47s0.23,1.07,0.16,1.44l-4.39,0.2l3.01,3.25
		c-0.26,0.33-0.65,0.64-1.17,0.93c-0.52,0.29-0.98,0.48-1.39,0.57L334.74,386.31z"/>
	<path class="st1" d="M321.18,393.6l-2.6,3.51c-0.33-0.17-0.7-0.49-1.11-0.96c-0.41-0.47-0.7-0.88-0.88-1.25l3.82-2.26l-4.21-1.27
		c0.04-0.39,0.21-0.86,0.51-1.41c0.3-0.55,0.61-0.95,0.94-1.21l3.26,2.79l-0.17-4.24c0.39-0.09,0.91-0.08,1.53,0.03
		c0.63,0.1,1.1,0.26,1.41,0.49l-1.61,4.03l4.13-1.54c0.19,0.4,0.35,0.91,0.46,1.52c0.11,0.61,0.12,1.09,0.03,1.45l-4.39-0.23
		l2.68,3.53c-0.29,0.3-0.71,0.58-1.25,0.82s-1.03,0.39-1.44,0.44L321.18,393.6z"/>
	<path class="st1" d="M306.99,399.54l-2.93,3.25c-0.31-0.2-0.65-0.56-1.01-1.06c-0.36-0.5-0.62-0.95-0.76-1.33l4.02-1.89l-4.07-1.67
		c0.08-0.39,0.29-0.84,0.64-1.35c0.35-0.52,0.7-0.89,1.05-1.12l2.98,3.09l0.24-4.23c0.4-0.05,0.91,0.01,1.52,0.17
		c0.62,0.16,1.07,0.37,1.36,0.62l-1.99,3.86l4.26-1.14c0.15,0.42,0.26,0.94,0.32,1.55c0.06,0.62,0.02,1.1-0.11,1.44l-4.35-0.65
		l2.33,3.77c-0.32,0.27-0.76,0.51-1.33,0.69s-1.06,0.29-1.47,0.3L306.99,399.54z"/>
	<path class="st1" d="M273.74,391.93l13.81-2.77c0.33,0.41,0.56,0.77,0.68,1.09l-7.29,17.91l7.01-1.66l-0.19-2.39
		c-0.07-1.13,0.43-1.69,1.52-1.67l1.15,5.71l-12.33,2.47c-0.44-0.2-0.72-0.53-0.83-1l7.21-18.01l-8.21,2.05l0.16,2.48
		c0.06,1.07-0.44,1.61-1.5,1.62L273.74,391.93z"/>
	<path class="st1" d="M265.34,405.11l0.03,0.33c0.04,0.45,0.01,0.74-0.09,0.88c-0.1,0.14-0.18,0.24-0.23,0.3
		c-0.12,0.14-0.32,0.23-0.6,0.25l-3.96,0.35l-1.09-12.16l-0.9,0.02c-0.56,0.03-0.88-0.46-0.97-1.46l3.7-0.7l0.64,1.49
		c1.22-1.29,2.52-2,3.93-2.12c1.4-0.13,2.64,0.24,3.71,1.09c1.07,0.85,1.69,2.26,1.87,4.23l0.61,6.83l2.07-0.13l0.02,0.25
		c0.08,0.95-0.23,1.45-0.93,1.52l-3.85,0.34l-0.77-8.56c-0.21-2.38-1.3-3.48-3.25-3.31c-1.06,0.1-2.04,0.58-2.93,1.44l0.83,9.23
		L265.34,405.11z"/>
	<path class="st1" d="M249.2,407c-0.83,0.48-1.54,0.72-2.13,0.71s-1.07-0.19-1.45-0.53c-0.38-0.34-0.56-0.94-0.54-1.79
		c0.01-0.85,0.28-1.5,0.79-1.96c0.3-0.22,0.78-0.29,1.43-0.23c-0.01,0.8,0.06,1.35,0.23,1.64c0.16,0.29,0.43,0.44,0.81,0.45
		c0.9,0.01,1.84-0.59,2.83-1.8l0.14-8.37l-2.32-0.21c-0.09-1.05,0.28-1.56,1.12-1.55l6.13,0.1l0,0.22
		c-0.01,0.86-0.39,1.32-1.11,1.38l-0.95,0.04l-0.17,10.39l1.34,0.16c0.5,0.06,0.75,0.55,0.73,1.47l-4.57,0.51l-0.19-2.24l-0.08,0
		C250.7,405.98,250.03,406.51,249.2,407z"/>
	<path class="st1" d="M234.71,406.86c-1.52-0.15-2.76-0.83-3.72-2.04c-0.96-1.21-1.34-2.99-1.15-5.33c0.19-2.34,0.95-4.19,2.26-5.54
		c1.31-1.35,3.09-1.92,5.32-1.7c1.04,0.1,1.98,0.39,2.81,0.87l2.72,1.2l-1.62,16.44l1.24,0.24c0.64,0.14,0.88,0.68,0.71,1.62
		l-4.99,0.1l0.7-7.08C237.66,406.59,236.23,407,234.71,406.86z M236.92,394.19c-2.34-0.23-3.69,1.46-4.04,5.06
		c-0.16,1.62,0.01,2.92,0.5,3.92c0.49,1,1.29,1.55,2.38,1.66c1.1,0.11,2.24-0.28,3.43-1.15l0.78-7.94
		C239.1,394.81,238.09,394.3,236.92,394.19z"/>
	<path class="st1" d="M204.26,405.59l1-3.9c0.19-0.74,0.79-0.92,1.79-0.55l-0.54,3.1l5.93,1.67l1.72-6.7l-5.09-0.79
		c0.01-0.85,0.2-1.65,0.59-2.42l4.92,1.56l1.74-6.75l-2.4-0.79c0.16-1.06,0.64-1.48,1.46-1.27l6.26,1.61l-0.06,0.22
		c-0.22,0.85-0.69,1.22-1.41,1.11l-0.96-0.19l-3.89,15.13l1.91,0.67c-0.16,1.06-0.64,1.48-1.46,1.27L204.26,405.59z"/>
	<path class="st1" d="M205.7,393.07c-0.79,2.19-1.98,3.74-3.55,4.65c-1.57,0.9-3.28,1.02-5.12,0.34c-1.84-0.67-3.08-1.78-3.72-3.32
		c-0.64-1.54-0.56-3.42,0.25-5.63c0.8-2.22,1.99-3.77,3.55-4.63c1.56-0.87,3.3-0.95,5.22-0.25c1.92,0.7,3.16,1.8,3.73,3.3
		C206.61,389.03,206.49,390.87,205.7,393.07z M197.69,396.29c1.03,0.37,2,0.17,2.91-0.57c0.91-0.75,1.66-1.91,2.23-3.49
		c0.58-1.58,0.77-2.93,0.56-4.06c-0.2-1.13-0.82-1.88-1.85-2.24c-1.03-0.37-1.99-0.2-2.88,0.5c-0.89,0.7-1.63,1.83-2.2,3.41
		c-0.58,1.58-0.77,2.96-0.59,4.14C196.06,395.15,196.66,395.92,197.69,396.29z"/>
	<path class="st1" d="M181.86,389.24l-0.15,0.3c-0.2,0.4-0.38,0.64-0.53,0.71c-0.16,0.07-0.27,0.12-0.35,0.14
		c-0.17,0.06-0.39,0.03-0.64-0.1l-3.57-1.75l5.38-10.96l-0.78-0.45c-0.49-0.26-0.52-0.85-0.07-1.75l3.53,1.33l-0.23,1.6
		c1.71-0.47,3.19-0.4,4.46,0.23c1.27,0.62,2.13,1.57,2.61,2.86c0.47,1.28,0.27,2.81-0.6,4.59l-3.02,6.16l1.83,0.96l-0.11,0.23
		c-0.42,0.85-0.95,1.13-1.58,0.81l-3.47-1.7l3.79-7.72c1.05-2.14,0.7-3.65-1.06-4.51c-0.95-0.47-2.04-0.57-3.26-0.29l-4.09,8.32
		L181.86,389.24z"/>
	<path class="st1" d="M167.45,366.48l4.9,3.15l-0.12,0.19c-0.46,0.72-1.02,0.92-1.68,0.59l-0.85-0.48l-3.8,5.91
		c-1.19,1.85-1.03,3.27,0.5,4.25c0.63,0.4,1.23,0.65,1.81,0.75c0.58,0.1,1.28,0.08,2.09-0.04l4.74-7.37l-1.58-1.22
		c0.47-0.94,1.05-1.19,1.74-0.74l4.95,3.18l-0.12,0.19c-0.24,0.38-0.46,0.59-0.65,0.65c-0.37,0.12-0.72,0.09-1.05-0.08l-0.85-0.48
		l-5.62,8.74l0.96,0.78c0.47,0.37,0.45,0.96-0.06,1.76l-4.12-1.98l0.8-1.71l-0.07-0.05c-1.93,0.34-3.49,0.12-4.7-0.66
		c-1.21-0.78-1.97-1.82-2.28-3.11s0.06-2.76,1.11-4.4l3.77-5.86l-1.56-1.2C166.18,366.29,166.76,366.04,167.45,366.48z"/>
	<path class="st1" d="M153.75,356.97c0.68-0.84,1.58-0.81,2.69,0.09c1.11,0.9,1.38,1.87,0.82,2.91c1.67-0.1,3.11,0.33,4.3,1.3
		c1.19,0.97,1.86,2.23,2,3.78c0.14,1.54-0.52,3.24-1.98,5.09c-1.46,1.85-3.11,2.97-4.96,3.36c-1.85,0.39-3.64-0.11-5.36-1.51
		c-0.81-0.66-1.43-1.42-1.86-2.28l-2.4,2.95l0.88,0.87c0.47,0.48,0.38,1.07-0.28,1.76l-4.24-2.69l11.67-14.33L153.75,356.97z
		 M151.06,367.67c0.21,1.23,0.78,2.23,1.74,3.01c0.96,0.78,1.97,0.94,3.05,0.48c1.08-0.46,2.12-1.29,3.12-2.52
		c1-1.22,1.56-2.39,1.68-3.5c0.13-1.11-0.24-2.02-1.09-2.71c-0.85-0.7-2.01-1.01-3.46-0.94L151.06,367.67z"/>
	<path class="st1" d="M143.81,346.96c0.73-0.73,1.57-0.61,2.52,0.34c0.96,0.96,1.19,1.91,0.69,2.86c1.58,0.13,2.89,0.7,3.9,1.72
		c1.02,1.01,1.56,2.04,1.64,3.08c0.07,1.04-0.31,1.98-1.15,2.82c-0.84,0.85-1.86,1.23-3.06,1.14c-1.19-0.08-2.51-0.84-3.93-2.26
		c-0.62-0.62-1.18-1.28-1.67-1.98l-1.11,1.11c-1.67,1.68-1.86,3.17-0.55,4.48c0.53,0.53,1.13,0.77,1.79,0.72
		c0.67-0.05,1.28-0.33,1.85-0.84c0.49,0.41,0.78,0.86,0.88,1.36c0.1,0.5-0.06,0.95-0.46,1.36c-0.61,0.61-1.42,0.8-2.44,0.57
		c-1.02-0.23-2.07-0.88-3.15-1.96s-1.69-2.27-1.85-3.58c-0.15-1.31,0.44-2.64,1.79-3.99l5.46-5.47L143.81,346.96z M144.14,353.3
		c0.3,0.75,0.77,1.44,1.4,2.07c0.63,0.63,1.25,0.99,1.87,1.08c0.62,0.09,1.17-0.1,1.65-0.59c0.48-0.48,0.71-0.99,0.7-1.54
		c-0.01-0.54-0.33-1.12-0.96-1.75c-0.63-0.63-1.53-1.04-2.7-1.23L144.14,353.3z"/>
	<path class="st1" d="M131.8,349.94l6.07-5.13c1.28-1.08,1.59-2.03,0.91-2.82c-0.43-0.51-0.87-0.89-1.31-1.13
		c-0.44-0.24-1.03-0.44-1.77-0.6c-0.05-0.08-0.03-0.24,0.04-0.47c0.07-0.23,0.19-0.42,0.37-0.57c0.5-0.42,1.25-0.42,2.26,0
		s1.83,1.02,2.48,1.79c0.96,1.14,1.3,2.19,1,3.13c-0.3,0.95-1.02,1.91-2.16,2.87l-6.05,5.12l1.43,1.69
		c-0.87,0.73-1.55,0.81-2.05,0.23l-0.69-0.81l-2.65,2.24l-2.16-1.91l2.97-2.51l-3.31-3.91c0.16-0.19,0.38-0.33,0.65-0.44
		c0.54-0.26,0.97-0.22,1.3,0.11L131.8,349.94z"/>
	<path class="st1" d="M119.65,343.41c0.42-0.31,0.87-0.43,1.35-0.36c0.48,0.07,0.88,0.32,1.18,0.73c0.31,0.41,0.42,0.86,0.35,1.34
		c-0.07,0.48-0.32,0.88-0.74,1.19c-0.42,0.31-0.87,0.43-1.35,0.36c-0.48-0.07-0.88-0.32-1.18-0.73c-0.3-0.41-0.42-0.86-0.35-1.34
		C118.98,344.12,119.23,343.72,119.65,343.41z M133.49,332.18l3.51,4.75l-0.18,0.13c-0.69,0.51-1.28,0.49-1.77-0.05l-0.63-0.75
		l-8.45,6.23l0.62,1.07c0.31,0.51,0.08,1.05-0.68,1.62l-3.41-3.68l10.18-7.51l-1.08-1.75C132.38,331.55,133.01,331.52,133.49,332.18
		z"/>
	<path class="st1" d="M126.35,333.88c-1.98,1.24-3.86,1.74-5.66,1.48c-1.8-0.25-3.21-1.21-4.25-2.88s-1.33-3.3-0.9-4.9
		c0.44-1.61,1.66-3.04,3.66-4.29c2-1.26,3.88-1.75,5.65-1.47c1.77,0.27,3.19,1.28,4.27,3.01c1.08,1.73,1.38,3.37,0.91,4.9
		C129.55,331.25,128.33,332.64,126.35,333.88z M118.05,331.5c0.59,0.92,1.47,1.37,2.65,1.34c1.18-0.03,2.48-0.49,3.91-1.38
		c1.43-0.89,2.41-1.84,2.94-2.85c0.53-1.01,0.51-1.98-0.08-2.9c-0.59-0.92-1.44-1.38-2.58-1.38c-1.13,0-2.41,0.45-3.84,1.34
		c-1.43,0.89-2.43,1.86-3.01,2.9C117.47,329.59,117.47,330.57,118.05,331.5z"/>
	<path class="st1" d="M117.92,304.54l2.52,5.25l-0.2,0.1c-0.77,0.37-1.35,0.25-1.73-0.38l-0.48-0.86l-6.33,3.05
		c-1.98,0.95-2.58,2.25-1.8,3.88c0.32,0.67,0.71,1.2,1.15,1.59s1.04,0.74,1.8,1.06l7.9-3.8l-0.71-1.86
		c0.89-0.55,1.52-0.46,1.87,0.28l2.55,5.3l-0.2,0.1c-0.4,0.19-0.7,0.26-0.89,0.21c-0.37-0.09-0.66-0.29-0.85-0.61l-0.48-0.86
		l-9.36,4.5l0.41,1.17c0.21,0.56-0.12,1.05-0.97,1.46l-2.47-3.85l1.58-1.04l-0.04-0.08c-1.82-0.72-3.04-1.73-3.66-3.02
		c-0.62-1.3-0.73-2.58-0.31-3.84c0.42-1.27,1.5-2.32,3.25-3.16l6.28-3.02l-0.7-1.84C116.94,303.7,117.57,303.8,117.92,304.54z"/>
	<path class="st1" d="M97.57,293.97l-3.06-3.12c0.22-0.3,0.6-0.62,1.12-0.95c0.52-0.33,0.98-0.56,1.38-0.67l1.64,4.13l1.92-3.96
		c0.38,0.1,0.82,0.34,1.31,0.72c0.49,0.38,0.84,0.75,1.05,1.12l-3.26,2.78l4.21,0.5c0.02,0.4-0.07,0.91-0.27,1.51
		c-0.2,0.61-0.43,1.04-0.7,1.32l-3.73-2.22l0.88,4.33c-0.43,0.13-0.95,0.2-1.57,0.22c-0.62,0.02-1.1-0.05-1.43-0.2l0.91-4.3
		l-3.9,2.1c-0.25-0.33-0.46-0.79-0.61-1.37c-0.15-0.58-0.22-1.07-0.21-1.49L97.57,293.97z"/>
	<path class="st1" d="M93.92,279.04l-2.75-3.4c0.25-0.28,0.65-0.56,1.21-0.83c0.55-0.28,1.03-0.46,1.44-0.54l1.23,4.27l2.29-3.76
		c0.37,0.14,0.78,0.42,1.23,0.84s0.77,0.83,0.94,1.21l-3.51,2.46l4.14,0.9c-0.02,0.4-0.15,0.9-0.41,1.48
		c-0.26,0.58-0.53,1-0.83,1.25l-3.5-2.57l0.46,4.39c-0.44,0.09-0.97,0.11-1.58,0.07c-0.62-0.04-1.09-0.15-1.41-0.34l1.32-4.2
		l-4.09,1.71c-0.22-0.36-0.38-0.83-0.48-1.42c-0.1-0.59-0.12-1.09-0.06-1.5L93.92,279.04z"/>
	<path class="st1" d="M91.71,263.8l-2.41-3.65c0.28-0.25,0.7-0.49,1.28-0.72c0.58-0.22,1.07-0.36,1.48-0.4l0.82,4.37l2.64-3.52
		c0.35,0.17,0.74,0.49,1.15,0.96c0.41,0.47,0.68,0.9,0.82,1.3l-3.73,2.11l4.04,1.29c-0.05,0.4-0.24,0.88-0.55,1.43
		c-0.31,0.56-0.63,0.94-0.94,1.16l-3.24-2.89l0.04,4.41c-0.45,0.04-0.97,0.02-1.58-0.08c-0.61-0.1-1.07-0.26-1.37-0.47l1.71-4.05
		l-4.23,1.31c-0.19-0.38-0.3-0.86-0.34-1.46s-0.01-1.1,0.08-1.5L91.71,263.8z"/>
	<path class="st1" d="M107.48,232.05l-0.36,6.09l-0.22-0.01c-0.88-0.05-1.33-0.44-1.36-1.17l0-0.98l-4.54,0.97l-0.32,5.37l4.34,1.55
		l0.3-2.2c1.07-0.05,1.58,0.35,1.53,1.18l-0.31,5.34l-0.22-0.01c-0.88-0.05-1.33-0.44-1.36-1.17l0.01-1.09l-17.04-6.39
		c-0.03-0.71,0.02-1.52,0.14-2.43l17.61-4.29l0.28-1.89C107.02,230.84,107.53,231.23,107.48,232.05z M99.03,241.73l0.26-4.42
		l-7.84,1.7L99.03,241.73z"/>
	<path class="st1" d="M109.04,215.67c1.07,0.18,1.48,0.98,1.24,2.39c-0.24,1.41-0.95,2.12-2.13,2.15c0.91,1.41,1.24,2.87,0.97,4.39
		c-0.26,1.52-1.03,2.72-2.31,3.59c-1.28,0.88-3.08,1.13-5.4,0.77c-2.32-0.36-4.11-1.26-5.36-2.67c-1.25-1.42-1.69-3.22-1.31-5.41
		c0.18-1.03,0.54-1.94,1.07-2.74l-3.75-0.65l-0.32,1.19c-0.19,0.65-0.74,0.86-1.67,0.62l0.27-5.01l18.21,3.15L109.04,215.67z
		 M98.39,218.58c-0.97,0.78-1.56,1.78-1.77,2.99c-0.21,1.21,0.15,2.18,1.08,2.9c0.93,0.72,2.17,1.21,3.72,1.48s2.85,0.19,3.88-0.25
		c1.03-0.44,1.64-1.2,1.83-2.28c0.19-1.08-0.1-2.24-0.88-3.48L98.39,218.58z"/>
	<path class="st1" d="M104,213.11c-2.25-0.62-3.88-1.68-4.91-3.18c-1.02-1.5-1.27-3.19-0.74-5.08s1.54-3.21,3.02-3.96
		c1.48-0.76,3.36-0.82,5.64-0.19c2.28,0.63,3.91,1.69,4.89,3.18c0.99,1.49,1.2,3.22,0.65,5.19c-0.55,1.97-1.56,3.29-3.01,3.97
		C108.1,213.71,106.25,213.74,104,213.11z M100.18,205.37c-0.29,1.05-0.02,2.01,0.8,2.86c0.82,0.85,2.03,1.5,3.65,1.96
		c1.62,0.46,2.98,0.54,4.09,0.25c1.11-0.29,1.81-0.96,2.09-2.01s0.05-2-0.72-2.83c-0.76-0.83-1.95-1.48-3.57-1.94
		c-1.62-0.46-3.01-0.55-4.17-0.27C101.19,203.66,100.46,204.32,100.18,205.37z"/>
	<path class="st1" d="M104.16,187.95c0.57-1.42,1.56-2.43,2.99-3.01c1.43-0.59,3.24-0.46,5.44,0.37c2.2,0.83,3.77,2.07,4.7,3.71
		s0.99,3.5,0.16,5.58c-0.39,0.97-0.92,1.79-1.61,2.46l-1.9,2.29l-15.35-6.1l-0.57,1.13c-0.31,0.58-0.89,0.66-1.75,0.24l1.28-4.82
		l6.61,2.63C103.6,190.86,103.6,189.37,104.16,187.95z M115.73,193.57c0.87-2.19-0.38-3.95-3.74-5.29c-1.51-0.6-2.81-0.8-3.9-0.6
		s-1.84,0.81-2.25,1.83c-0.41,1.02-0.35,2.23,0.16,3.62l7.42,2.95C114.52,195.5,115.29,194.66,115.73,193.57z"/>
	<path class="st1" d="M115.46,180.7l0.47,0.24c1.38,0.71,2.57,0.99,3.57,0.84c1-0.15,1.83-0.85,2.47-2.08
		c0.64-1.23,0.8-2.65,0.49-4.24c0.34-0.18,0.72-0.17,1.11,0.04c0.53,0.27,0.82,1,0.87,2.19c0.05,1.18-0.26,2.41-0.92,3.69
		c-0.88,1.71-2.09,2.77-3.62,3.18c-1.53,0.42-3.35,0.08-5.48-1.02c-2.12-1.1-3.52-2.5-4.18-4.22c-0.67-1.71-0.58-3.39,0.27-5.02
		c0.85-1.63,1.95-2.57,3.32-2.81c1.36-0.24,2.79,0.04,4.27,0.83l1.34,0.7L115.46,180.7z M112.18,175.28
		c-0.78,1.51-0.16,3.01,1.86,4.5l2.6-5.02C114.41,173.66,112.92,173.84,112.18,175.28z"/>
	<path class="st1" d="M139.76,155.74l-3.77,5.11l-0.18-0.13c-0.36-0.27-0.57-0.5-0.63-0.71c-0.1-0.37-0.05-0.71,0.13-1.02l0.47-0.73
		l0.03-0.04l-7.15-0.3l2.49,6.53l0.02-0.02l1.38-1.59c0.92,0.54,1.14,1.14,0.65,1.8l-3.36,4.55l-0.18-0.13
		c-0.36-0.27-0.57-0.5-0.63-0.71c-0.1-0.37-0.05-0.72,0.14-1.04l0.54-0.82l-2.96-8.62l-9.79-0.41l-1.25,1.41
		c-0.94-0.55-1.16-1.16-0.67-1.82l3.76-5.09l0.16,0.12c0.72,0.53,0.9,1.11,0.52,1.74l-0.48,0.79l7.21,0.28l-2.51-6.55l-1.38,1.59
		c-0.94-0.55-1.16-1.17-0.66-1.84l3.29-4.46l0.16,0.12c0.72,0.53,0.9,1.11,0.52,1.74l-0.47,0.73l-0.03,0.04l3.03,8.71l9.69,0.4
		l1.28-1.45C140.05,154.46,140.26,155.07,139.76,155.74z"/>
	<path class="st1" d="M128.09,140.03l4.35-4.56c2.27-2.38,4.52-3.61,6.74-3.69c2.22-0.08,4.48,0.97,6.78,3.16
		c2.29,2.19,3.46,4.46,3.5,6.81c0.04,2.35-1,4.64-3.13,6.86l-5.28,5.53c-0.78-0.69-0.96-1.29-0.54-1.79l0.69-0.89l-11.28-10.77
		l-1.49,1.32c-0.4-0.36-0.65-0.69-0.73-1C127.63,140.71,127.75,140.38,128.09,140.03z M147.15,142.8c-0.09-1.73-1.17-3.57-3.23-5.54
		c-2.06-1.97-3.96-2.93-5.69-2.9s-3.49,1.05-5.27,3.04l-1,1.13l-0.02,0.02l11.26,10.75l1.38-1.32
		C146.38,146.25,147.24,144.52,147.15,142.8z"/>
	<path class="st1" d="M155.32,119.44l1.85-3.96c0.36,0.1,0.78,0.34,1.28,0.72c0.49,0.38,0.86,0.73,1.11,1.06l-3.3,2.98l4.38,0.41
		c0.04,0.39-0.03,0.89-0.22,1.48c-0.18,0.59-0.41,1.05-0.68,1.37l-3.75-2.08l1,4.12c-0.37,0.16-0.87,0.25-1.51,0.28
		s-1.13-0.04-1.48-0.2l0.78-4.27l-3.75,2.33c-0.27-0.36-0.52-0.82-0.75-1.4c-0.23-0.57-0.34-1.04-0.31-1.41l4.35-0.65l-3.33-2.93
		c0.22-0.35,0.58-0.7,1.07-1.05c0.49-0.34,0.93-0.58,1.32-0.71L155.32,119.44z"/>
	<path class="st1" d="M168.03,110.8l2.22-3.76c0.35,0.14,0.75,0.42,1.2,0.84c0.46,0.42,0.79,0.81,1.01,1.16l-3.56,2.65l4.32,0.83
		c0,0.39-0.12,0.88-0.36,1.45c-0.24,0.57-0.51,1.01-0.81,1.3l-3.53-2.43l0.6,4.2c-0.38,0.13-0.89,0.17-1.53,0.13
		c-0.64-0.04-1.12-0.15-1.46-0.34l1.18-4.18l-3.95,1.97c-0.23-0.38-0.44-0.87-0.62-1.46c-0.18-0.59-0.24-1.07-0.18-1.44l4.39-0.23
		l-3.03-3.23c0.26-0.33,0.64-0.65,1.16-0.94c0.52-0.3,0.98-0.49,1.38-0.59L168.03,110.8z"/>
	<path class="st1" d="M181.53,103.4l2.57-3.53c0.33,0.17,0.71,0.49,1.12,0.95c0.41,0.46,0.71,0.88,0.89,1.25l-3.8,2.3l4.22,1.24
		c-0.04,0.39-0.2,0.86-0.49,1.41c-0.29,0.55-0.6,0.95-0.93,1.22l-3.28-2.76l0.2,4.23c-0.39,0.09-0.9,0.08-1.53-0.01
		c-0.63-0.1-1.1-0.26-1.42-0.48l1.58-4.04l-4.12,1.58c-0.2-0.4-0.36-0.91-0.48-1.51c-0.12-0.61-0.13-1.09-0.04-1.45l4.39,0.19
		l-2.71-3.5c0.29-0.31,0.7-0.58,1.25-0.83c0.54-0.25,1.02-0.4,1.43-0.45L181.53,103.4z"/>
	<animateTransform attributeName="transform"
        id="int"
        type="rotate"
        from="0 251.66 248.60"
        to="360 251.66 248.60"
        dur="25s"
        repeatCount="indefinite"/>
</g>
<g>
	<path class="st1" d="M147,35.55l6.19-2.85c2.12-0.98,3.89-1.26,5.31-0.84c1.42,0.42,2.42,1.26,3.01,2.54
		c1.01,2.2,0.59,4.22-1.26,6.08c1.33-0.38,2.55-0.39,3.68-0.01s1.98,1.19,2.55,2.43c0.85,1.79,0.9,3.48,0.15,5.07
		c-0.75,1.59-2.23,2.89-4.45,3.91l-7.32,3.37c-0.22-0.53-0.33-0.97-0.31-1.31c0.02-0.34,0.21-0.6,0.57-0.79l1.02-0.61l-7.24-15.71
		l-2.13,0.78c-0.26-0.41-0.35-0.82-0.29-1.23C146.55,35.95,146.72,35.68,147,35.55z M155,42.24l0.82-0.38
		c1.58-0.73,2.57-1.56,2.99-2.5c0.42-0.94,0.35-2.02-0.21-3.23s-1.33-1.92-2.31-2.13c-0.98-0.21-2.07,0.02-3.27,0.69l-1.21,0.63
		L155,42.24z M163.61,44.63c-0.61-1.33-1.47-2.1-2.56-2.3c-1.09-0.2-2.49,0.1-4.19,0.91l-1.14,0.56l3.38,7.35l1.59-0.7
		C163.77,49.04,164.75,47.1,163.61,44.63z"/>
	<path class="st1" d="M168.63,40.88c-0.9-2.42-1-4.58-0.32-6.47s2.05-3.21,4.08-3.95s3.88-0.7,5.52,0.15s2.91,2.49,3.82,4.94
		s1.01,4.6,0.31,6.45c-0.7,1.85-2.11,3.17-4.24,3.94c-2.12,0.78-3.96,0.73-5.51-0.13C170.75,44.95,169.53,43.3,168.63,40.88z
		 M173.1,32.43c-1.13,0.43-1.81,1.28-2.05,2.56c-0.23,1.29-0.03,2.8,0.61,4.55c0.64,1.75,1.45,3.02,2.43,3.83
		c0.98,0.81,2.03,1,3.16,0.58c1.13-0.42,1.83-1.25,2.08-2.48c0.26-1.23,0.06-2.71-0.58-4.46c-0.64-1.75-1.46-3.05-2.46-3.92
		C175.29,32.22,174.23,32,173.1,32.43z"/>
	<path class="st1" d="M184.86,35.07c-0.71-2.48-0.65-4.64,0.18-6.47c0.83-1.83,2.29-3.04,4.38-3.62c2.09-0.58,3.92-0.39,5.49,0.57
		c1.57,0.97,2.71,2.71,3.42,5.22c0.71,2.52,0.65,4.67-0.19,6.46c-0.84,1.79-2.35,2.99-4.53,3.6s-4.01,0.42-5.48-0.56
		C186.66,39.29,185.57,37.56,184.86,35.07z M189.97,26.99c-1.16,0.34-1.91,1.14-2.24,2.4c-0.33,1.26-0.25,2.79,0.25,4.58
		c0.5,1.79,1.21,3.13,2.12,4.01s1.95,1.16,3.11,0.82c1.16-0.34,1.92-1.1,2.27-2.31c0.35-1.2,0.27-2.7-0.23-4.49
		c-0.5-1.79-1.22-3.16-2.15-4.1C192.18,26.96,191.13,26.66,189.97,26.99z"/>
	<path class="st1" d="M204.96,23.61l1.79,8.62c0.38,1.82,1.13,2.61,2.27,2.38c0.73-0.15,1.33-0.37,1.79-0.67
		c0.47-0.3,0.97-0.77,1.51-1.41c0.11,0,0.25,0.1,0.44,0.29c0.19,0.19,0.31,0.41,0.36,0.65c0.15,0.71-0.25,1.44-1.19,2.19
		c-0.94,0.75-1.96,1.24-3.05,1.47c-1.62,0.34-2.81,0.11-3.58-0.68c-0.77-0.79-1.32-2-1.65-3.62l-1.78-8.59l-2.4,0.5
		c-0.26-1.23,0.03-1.94,0.86-2.11l1.15-0.24l-0.78-3.76l3-1.1l0.87,4.22l5.56-1.15c0.09,0.25,0.12,0.54,0.08,0.87
		c-0.03,0.66-0.3,1.06-0.79,1.21L204.96,23.61z"/>
	<path class="st1" d="M213.93,24.05c-0.2-1.38,0.21-2.55,1.25-3.52c1.03-0.96,2.22-1.54,3.58-1.74c1.36-0.2,2.51-0.14,3.44,0.18
		c0.93,0.31,1.47,0.94,1.6,1.88c0.09,0.65-0.05,1.18-0.43,1.58c-0.38,0.4-0.88,0.6-1.51,0.61c-0.09-0.74-0.44-1.31-1.06-1.73
		c-0.62-0.41-1.33-0.56-2.12-0.46c-0.79,0.1-1.39,0.35-1.8,0.75c-0.41,0.39-0.58,0.86-0.5,1.39c0.08,0.53,0.43,0.94,1.07,1.22
		s1.51,0.56,2.63,0.83c1.11,0.27,1.9,0.48,2.36,0.64c0.46,0.16,0.97,0.39,1.51,0.69c1.04,0.56,1.66,1.53,1.84,2.9
		c0.19,1.37-0.2,2.63-1.18,3.77c-0.97,1.14-2.41,1.84-4.32,2.1c-1.37,0.18-2.61,0.08-3.72-0.29s-1.73-1.05-1.88-2.03
		c-0.07-0.64,0.08-1.16,0.46-1.57c0.38-0.41,0.86-0.66,1.46-0.74c0.28,0.92,0.76,1.6,1.45,2.04c0.69,0.44,1.5,0.6,2.43,0.48
		s1.65-0.4,2.15-0.83c0.5-0.43,0.7-0.97,0.61-1.64s-0.42-1.14-0.96-1.41c-0.54-0.28-1.32-0.53-2.34-0.77
		c-1.02-0.24-1.79-0.44-2.31-0.6s-1.08-0.4-1.67-0.71C214.82,26.44,214.13,25.44,213.93,24.05z"/>
	<path class="st1" d="M232.32,19.62l0.74,8.77c0.16,1.85,0.81,2.73,1.96,2.64c0.74-0.06,1.36-0.21,1.86-0.45
		c0.5-0.24,1.06-0.64,1.67-1.21c0.1,0.01,0.24,0.13,0.4,0.34c0.16,0.21,0.26,0.45,0.28,0.69c0.06,0.72-0.42,1.4-1.45,2.03
		c-1.03,0.64-2.09,1-3.21,1.09c-1.65,0.14-2.8-0.23-3.47-1.11c-0.67-0.88-1.07-2.14-1.2-3.79l-0.73-8.74l-2.44,0.2
		c-0.1-1.26,0.26-1.92,1.11-1.99l1.17-0.1l-0.32-3.83l3.11-0.73l0.36,4.29l5.65-0.47c0.06,0.26,0.06,0.56-0.02,0.87
		c-0.11,0.65-0.42,1.02-0.93,1.1L232.32,19.62z"/>
	<path class="st1" d="M248.54,17.27c0.9-0.57,1.67-0.86,2.32-0.88s1.19,0.16,1.62,0.52c0.43,0.36,0.66,1.01,0.68,1.95
		c0.02,0.94-0.24,1.68-0.79,2.2c-0.32,0.26-0.85,0.36-1.57,0.32c-0.02-0.89-0.13-1.49-0.32-1.81c-0.19-0.32-0.5-0.47-0.91-0.46
		c-0.99,0.02-2.01,0.73-3.05,2.12l0.21,9.27l2.58,0.13c0.15,1.15-0.24,1.74-1.17,1.76l-6.79,0.16l-0.01-0.25
		c-0.02-0.95,0.37-1.48,1.17-1.58l1.05-0.09l-0.27-11.5l-1.49-0.12c-0.56-0.05-0.85-0.58-0.87-1.59l5.04-0.77l0.31,2.47l0.09,0
		C246.93,18.46,247.65,17.84,248.54,17.27z"/>
	<path class="st1" d="M269.45,31.69c-0.05,1.14-0.83,1.67-2.32,1.6s-2.4-0.68-2.7-1.83c-1.39,1.08-2.88,1.58-4.47,1.51
		s-2.8-0.5-3.63-1.3c-0.83-0.79-1.22-1.85-1.16-3.17c0.06-1.32,0.61-2.39,1.65-3.21c1.04-0.82,2.68-1.18,4.91-1.08
		c0.97,0.04,1.92,0.17,2.84,0.38l0.08-1.73c0.12-2.62-0.84-3.98-2.89-4.07c-0.83-0.04-1.49,0.21-2,0.75
		c-0.51,0.54-0.81,1.23-0.88,2.07c-0.71,0.03-1.28-0.12-1.73-0.45c-0.45-0.33-0.66-0.82-0.63-1.46c0.04-0.95,0.57-1.71,1.58-2.29
		c1.01-0.58,2.35-0.82,4.04-0.75s3.08,0.59,4.18,1.55c1.1,0.96,1.61,2.49,1.51,4.6l-0.38,8.55L269.45,31.69z M264.46,26.75
		c-0.81-0.39-1.71-0.6-2.69-0.65c-0.98-0.04-1.76,0.13-2.33,0.52c-0.58,0.39-0.88,0.96-0.92,1.71c-0.03,0.75,0.16,1.35,0.57,1.78
		c0.42,0.43,1.11,0.67,2.09,0.71c0.98,0.04,2.02-0.29,3.13-1.01L264.46,26.75z"/>
	<path class="st1" d="M282.38,18.41c1.68,0.21,3.04,1,4.08,2.37c1.04,1.37,1.42,3.35,1.14,5.94c-0.28,2.59-1.17,4.61-2.68,6.07
		c-1.5,1.46-3.48,2.04-5.92,1.73c-1.15-0.14-2.18-0.49-3.09-1.04l-0.62,4.95l2.22,0.46c-0.02,1.16-0.49,1.69-1.41,1.57l-6.46-0.8
		l0.03-0.22c0.12-0.96,0.58-1.44,1.4-1.42l1.08,0.07l2.25-18.06l-1.42-0.36c-0.57-0.13-0.79-0.7-0.66-1.71l5.03,0l0.08,1.82
		C279.05,18.66,280.7,18.2,282.38,18.41z M276.27,30.62c0.96,1.01,2.1,1.6,3.43,1.77c1.33,0.17,2.37-0.28,3.1-1.33
		c0.74-1.05,1.21-2.45,1.43-4.2c0.22-1.74,0.06-3.18-0.46-4.31c-0.53-1.13-1.39-1.77-2.6-1.92c-1.21-0.15-2.48,0.23-3.8,1.15
		L276.27,30.62z"/>
	<path class="st1" d="M308.74,21.82l4.7-1.16c0.16,0.38,0.25,0.91,0.27,1.6c0.02,0.69-0.02,1.25-0.13,1.69l-4.86-0.76l2.7,4.06
		c-0.31,0.31-0.79,0.59-1.42,0.84s-1.19,0.38-1.66,0.37l-0.82-4.68l-2.85,3.73c-0.4-0.21-0.83-0.57-1.29-1.1
		c-0.46-0.53-0.75-1-0.86-1.41l4.21-2.31l-4.62-1.6c0.12-0.48,0.34-1.02,0.67-1.62c0.33-0.6,0.66-1.02,1-1.25l3.59,3.29l0.2-4.9
		c0.46-0.06,1.01,0.01,1.65,0.19s1.15,0.39,1.54,0.64L308.74,21.82z"/>
	<path class="st1" d="M325.47,26.68l4.77-0.81c0.13,0.39,0.18,0.93,0.15,1.62c-0.03,0.69-0.12,1.25-0.26,1.68l-4.79-1.12l2.38,4.25
		c-0.33,0.28-0.83,0.53-1.48,0.73c-0.66,0.21-1.22,0.29-1.68,0.25l-0.46-4.72l-3.12,3.51c-0.38-0.23-0.78-0.63-1.2-1.2
		c-0.42-0.56-0.67-1.06-0.75-1.47l4.38-1.98l-4.49-1.94c0.16-0.47,0.42-0.99,0.79-1.57c0.37-0.57,0.74-0.96,1.09-1.17l3.33,3.55
		l0.57-4.87c0.46-0.02,1.01,0.08,1.63,0.31c0.62,0.23,1.12,0.48,1.48,0.75L325.47,26.68z"/>
	<path class="st1" d="M341.78,32.78l4.82-0.45c0.1,0.4,0.11,0.94,0.03,1.62s-0.21,1.23-0.38,1.65l-4.69-1.48l2.06,4.42
		c-0.35,0.26-0.86,0.46-1.53,0.62s-1.24,0.2-1.69,0.12l-0.11-4.75l-3.37,3.26c-0.36-0.26-0.73-0.69-1.11-1.28
		c-0.38-0.59-0.59-1.1-0.64-1.53l4.51-1.65l-4.33-2.27c0.19-0.46,0.49-0.96,0.91-1.5c0.42-0.54,0.81-0.91,1.17-1.09l3.06,3.79
		l0.93-4.82c0.46,0.01,1,0.16,1.6,0.43c0.6,0.27,1.08,0.56,1.42,0.86L341.78,32.78z"/>
	<path class="st1" d="M371.74,44.77c0.26,0.81,0.18,1.58-0.23,2.31c-0.41,0.73-0.92,1.16-1.53,1.27c-0.61,0.12-1.22-0.04-1.83-0.47
		c1.24-2.22,0.83-3.91-1.25-5.07c-0.94-0.52-1.83-0.74-2.66-0.64c-0.84,0.1-1.47,0.54-1.91,1.31c-0.33,0.59-0.43,1.18-0.3,1.75
		c0.06,0.23,0.11,0.41,0.15,0.56c0.03,0.15,0.13,0.36,0.28,0.62c0.15,0.26,0.26,0.46,0.33,0.59c0.07,0.13,0.2,0.35,0.41,0.64
		c0.2,0.29,0.34,0.5,0.42,0.61c0.42,0.47,0.77,0.92,1.03,1.33c1.38,1.81,2.25,3.28,2.61,4.41s0.18,2.34-0.54,3.64
		c-0.98,1.75-2.42,2.85-4.31,3.29c-1.89,0.44-3.9,0.07-6.01-1.11c-1.5-0.84-2.65-1.87-3.47-3.1c-0.82-1.23-0.92-2.38-0.32-3.46
		c0.34-0.61,0.82-1,1.44-1.17c0.61-0.17,1.32-0.03,2.11,0.42c-1.19,2.51-0.62,4.41,1.7,5.71c1.24,0.7,2.39,0.95,3.45,0.76
		c1.05-0.19,1.85-0.76,2.38-1.72c0.53-0.94,0.55-1.92,0.08-2.94c-0.26-0.55-0.52-1.01-0.78-1.4s-0.67-0.94-1.23-1.67
		s-0.98-1.29-1.25-1.68c-0.27-0.39-0.59-0.91-0.95-1.56c-0.37-0.66-0.59-1.22-0.68-1.7c-0.22-1.21-0.03-2.36,0.58-3.44
		c0.9-1.6,2.19-2.51,3.87-2.72s3.36,0.15,5.05,1.07C370.1,42.14,371.23,43.32,371.74,44.77z"/>
	<path class="st1" d="M379.68,74l-5.6-3.79l0.14-0.21c0.54-0.8,1.17-1.01,1.89-0.63l0.93,0.56l1.65-4.87l-4.93-3.34l-3.93,3.26
		l1.92,1.53c-0.56,1.04-1.22,1.31-1.99,0.79l-4.9-3.32l0.14-0.21c0.54-0.8,1.17-1.01,1.89-0.63l1.04,0.63l15.72-12.61
		c0.7,0.37,1.44,0.88,2.23,1.51L380,71.86l1.64,1.34C381.09,74.24,380.43,74.51,379.68,74z M375.24,60.48l4.06,2.75l2.82-8.42
		L375.24,60.48z"/>
	<path class="st1" d="M404.2,67.81c0.12,0.84-0.08,1.58-0.61,2.24c-0.53,0.65-1.1,0.98-1.72,1c-0.62,0.01-1.2-0.24-1.72-0.77
		c1.6-1.98,1.47-3.71-0.38-5.21c-0.84-0.68-1.68-1.03-2.52-1.08c-0.84-0.04-1.54,0.28-2.1,0.97c-0.43,0.53-0.63,1.09-0.59,1.67
		c0.02,0.23,0.04,0.43,0.05,0.58s0.07,0.37,0.17,0.65s0.18,0.5,0.22,0.64c0.04,0.14,0.14,0.37,0.29,0.7
		c0.15,0.32,0.26,0.55,0.31,0.67c0.34,0.54,0.6,1.03,0.8,1.48c1.05,2.02,1.66,3.61,1.83,4.79s-0.21,2.34-1.15,3.5
		c-1.26,1.56-2.86,2.4-4.8,2.52c-1.94,0.12-3.85-0.58-5.73-2.1c-1.33-1.08-2.3-2.29-2.9-3.64c-0.6-1.35-0.51-2.5,0.27-3.47
		c0.44-0.55,0.98-0.85,1.61-0.91c0.63-0.06,1.3,0.2,2.01,0.77c-1.59,2.27-1.36,4.25,0.72,5.92c1.11,0.9,2.2,1.34,3.27,1.33
		c1.07-0.01,1.95-0.44,2.64-1.3c0.67-0.84,0.87-1.8,0.57-2.88c-0.17-0.58-0.34-1.09-0.54-1.51c-0.19-0.42-0.5-1.04-0.94-1.85
		c-0.43-0.81-0.75-1.43-0.95-1.86c-0.2-0.43-0.43-0.99-0.68-1.7s-0.38-1.3-0.39-1.79c-0.01-1.23,0.37-2.33,1.15-3.3
		c1.16-1.43,2.58-2.11,4.27-2.03c1.69,0.08,3.29,0.71,4.8,1.9C403.03,64.94,403.94,66.3,404.2,67.81z"/>
	<path class="st1" d="M417.44,79.88c0.05,0.85-0.2,1.57-0.78,2.18c-0.57,0.61-1.17,0.9-1.79,0.87c-0.62-0.03-1.18-0.33-1.66-0.9
		c1.74-1.85,1.75-3.59,0.01-5.22c-0.78-0.74-1.59-1.16-2.43-1.26c-0.84-0.11-1.56,0.17-2.17,0.81c-0.47,0.5-0.71,1.04-0.72,1.62
		c0.01,0.23,0.01,0.43,0.01,0.58c0,0.15,0.04,0.38,0.12,0.67s0.14,0.51,0.17,0.65c0.03,0.15,0.11,0.38,0.24,0.72
		c0.13,0.33,0.21,0.56,0.26,0.69c0.29,0.56,0.52,1.07,0.68,1.54c0.9,2.09,1.39,3.73,1.47,4.91c0.08,1.18-0.39,2.31-1.41,3.4
		c-1.37,1.46-3.03,2.18-4.98,2.15s-3.8-0.87-5.56-2.53c-1.25-1.18-2.12-2.46-2.62-3.84c-0.5-1.39-0.32-2.53,0.53-3.44
		c0.48-0.51,1.04-0.77,1.68-0.79c0.63-0.01,1.28,0.29,1.95,0.92c-1.76,2.15-1.67,4.13,0.27,5.96c1.04,0.98,2.09,1.5,3.16,1.57
		c1.07,0.07,1.98-0.29,2.73-1.09c0.74-0.78,1-1.73,0.79-2.83c-0.12-0.6-0.26-1.11-0.42-1.54c-0.16-0.43-0.42-1.07-0.79-1.92
		c-0.37-0.84-0.64-1.49-0.81-1.93c-0.17-0.44-0.35-1.02-0.55-1.75c-0.2-0.73-0.28-1.33-0.25-1.81c0.08-1.23,0.54-2.3,1.39-3.2
		c1.26-1.34,2.73-1.91,4.41-1.7c1.68,0.2,3.23,0.96,4.64,2.26C416.49,76.93,417.29,78.35,417.44,79.88z"/>
	<path class="st1" d="M430.54,98l4.49,1.81c-0.09,0.4-0.33,0.89-0.72,1.46c-0.39,0.57-0.75,1-1.1,1.29l-3.49-3.46l-0.19,4.87
		c-0.43,0.07-0.98,0.02-1.65-0.15s-1.19-0.39-1.56-0.67l2.08-4.27l-4.49,1.36c-0.2-0.4-0.33-0.95-0.4-1.65
		c-0.07-0.7-0.02-1.25,0.13-1.65l4.77,0.6l-2.81-4c0.38-0.32,0.88-0.63,1.5-0.92c0.62-0.29,1.13-0.44,1.54-0.43l0.98,4.77l3.03-3.86
		c0.41,0.23,0.81,0.6,1.23,1.12c0.41,0.52,0.7,0.99,0.87,1.42L430.54,98z"/>
	<path class="st1" d="M441.25,111.72l4.34,2.14c-0.12,0.4-0.4,0.86-0.82,1.4c-0.43,0.54-0.82,0.94-1.19,1.21l-3.22-3.71l-0.55,4.84
		c-0.44,0.03-0.98-0.06-1.63-0.27c-0.65-0.22-1.16-0.48-1.51-0.78l2.39-4.1l-4.58,1.02c-0.17-0.41-0.26-0.97-0.28-1.68
		c-0.01-0.71,0.07-1.25,0.25-1.64l4.71,0.95l-2.5-4.2c0.4-0.29,0.92-0.56,1.56-0.8s1.16-0.35,1.57-0.31l0.63,4.83l3.31-3.62
		c0.39,0.25,0.77,0.66,1.14,1.2c0.37,0.55,0.62,1.04,0.76,1.48L441.25,111.72z"/>
	<path class="st1" d="M450.91,126.19l4.17,2.46c-0.15,0.38-0.46,0.83-0.93,1.33s-0.89,0.88-1.28,1.12l-2.94-3.94l-0.91,4.79
		c-0.44,0-0.97-0.13-1.61-0.39s-1.12-0.56-1.44-0.89l2.69-3.91l-4.64,0.68c-0.14-0.42-0.19-0.99-0.15-1.69
		c0.04-0.7,0.16-1.24,0.37-1.61l4.62,1.3l-2.18-4.37c0.42-0.26,0.96-0.49,1.62-0.69c0.66-0.2,1.19-0.26,1.59-0.2l0.26,4.86
		l3.57-3.36c0.37,0.28,0.72,0.71,1.05,1.28c0.33,0.57,0.55,1.08,0.65,1.53L450.91,126.19z"/>
	<path class="st1" d="M465.18,144.66l2.9,6.07l-0.22,0.11c-0.45,0.21-0.79,0.3-1.02,0.25c-0.42-0.1-0.73-0.33-0.94-0.68l-0.5-0.9
		l-13.57,6.48c-1.62,0.78-3.17,0.97-4.63,0.6s-2.55-1.31-3.26-2.8c-0.37-0.78-0.48-1.53-0.31-2.24c0.17-0.71,0.53-1.2,1.1-1.47
		s1.1-0.33,1.6-0.18c0.5,0.15,0.9,0.58,1.21,1.28c-1.25,0.64-1.66,1.41-1.23,2.31c0.21,0.43,0.59,0.63,1.17,0.61
		c0.57-0.02,1.49-0.33,2.73-0.93l13.73-6.56l-0.01-0.03l-0.85-2.21C464.08,143.74,464.78,143.84,465.18,144.66z"/>
	<path class="st1" d="M449.18,178.12l-2.35-5.94l0.2-0.08c0.9-0.36,1.54-0.18,1.92,0.54l0.46,0.99l5.68-2.25
		c-1.56-0.85-2.65-2.05-3.26-3.61s-0.57-3.12,0.14-4.69c0.71-1.57,2.26-2.85,4.66-3.85c2.4-0.99,4.59-1.19,6.59-0.58
		c2,0.61,3.45,2.06,4.36,4.34c0.51,1.29,0.69,2.55,0.54,3.79l1.38,2.29l-18.85,7.47l0.6,2.03
		C450.2,179.12,449.52,178.97,449.18,178.12z M465.39,163.49c-0.74-1.86-2.38-2.55-4.92-2.05c-0.66,0.13-1.37,0.34-2.11,0.64
		c-1.65,0.66-2.84,1.49-3.56,2.5c-0.72,1.01-0.86,2.08-0.41,3.21c0.45,1.13,1.36,2.06,2.74,2.78l8.33-3.3
		C465.88,165.94,465.86,164.68,465.39,163.49z"/>
	<path class="st1" d="M471.86,182.52l0.36-0.11c0.47-0.14,0.8-0.18,0.97-0.1c0.17,0.08,0.3,0.14,0.38,0.18
		c0.18,0.1,0.32,0.29,0.41,0.59l1.28,4.21l-12.94,3.92l0.23,0.97c0.16,0.6-0.29,1.06-1.36,1.38l-1.59-3.86l1.47-1.03
		c-1.67-1.03-2.73-2.29-3.19-3.78c-0.45-1.49-0.34-2.92,0.34-4.27c0.68-1.35,2.07-2.34,4.17-2.98l7.27-2.2l-0.61-2.21l0.27-0.08
		c1.01-0.31,1.63-0.08,1.85,0.67l1.24,4.09l-9.11,2.76c-2.53,0.77-3.48,2.19-2.85,4.27c0.34,1.13,1.08,2.08,2.22,2.86l9.82-2.97
		L471.86,182.52z"/>
	<path class="st1" d="M469.81,197.3l-0.58,0.13c-1.68,0.37-2.89,0.97-3.63,1.81c-0.75,0.84-0.96,2.01-0.63,3.52
		c0.33,1.5,1.19,2.82,2.58,3.96c-0.17,0.4-0.49,0.65-0.98,0.75c-0.65,0.14-1.41-0.27-2.29-1.25s-1.49-2.23-1.83-3.79
		c-0.45-2.08-0.18-3.84,0.83-5.27c1.01-1.44,2.8-2.44,5.39-3c2.58-0.56,4.77-0.35,6.55,0.63c1.78,0.99,2.89,2.47,3.32,4.46
		s0.16,3.57-0.84,4.74c-0.99,1.17-2.4,1.94-4.22,2.32l-1.63,0.36L469.81,197.3z M476.43,199.6c-0.4-1.84-1.99-2.67-4.77-2.51
		l1.34,6.12C475.67,202.56,476.82,201.36,476.43,199.6z"/>
	<path class="st1" d="M480.69,216.01c0.67,0.82,1.06,1.55,1.16,2.19s-0.01,1.2-0.31,1.68c-0.31,0.47-0.92,0.78-1.85,0.92
		c-0.93,0.14-1.69-0.03-2.28-0.51c-0.29-0.29-0.46-0.8-0.51-1.52c0.88-0.13,1.46-0.31,1.75-0.54s0.4-0.55,0.34-0.96
		c-0.15-0.98-0.97-1.9-2.48-2.77l-9.17,1.36l0.19,2.57c-1.13,0.29-1.76-0.02-1.89-0.94l-1-6.72l0.25-0.04
		c0.94-0.14,1.51,0.18,1.71,0.97l0.22,1.03l11.38-1.69l-0.07-1.49c-0.02-0.56,0.47-0.92,1.47-1.06l1.39,4.9l-2.42,0.61l0.01,0.09
		C479.31,214.55,480.01,215.19,480.69,216.01z"/>
	<path class="st1" d="M482.85,233.68l0.34,4.3L482.9,238c-0.89,0.07-1.42-0.29-1.61-1.09l-0.05-0.21l-13.04-4.17l0,0.03
		c-2.72-0.91-4.49-1.56-5.28-1.95c-2.01-1.02-3.08-2.24-3.21-3.64c-0.06-0.8,0.08-1.45,0.44-1.95s0.81-0.76,1.37-0.81
		c0.56-0.04,1.02,0.08,1.38,0.37c0.36,0.29,0.56,0.63,0.59,1.03c0.03,0.39,0.03,0.64,0,0.75c-0.28-0.08-0.59-0.06-0.94,0.07
		c-0.35,0.13-0.51,0.38-0.49,0.75c0.04,0.56,0.73,1.12,2.05,1.71c1.32,0.58,2.67,1.05,4.04,1.39l12-6.41l-0.01-0.09l0.06-1.62
		c1.14-0.21,1.75,0.13,1.82,1.04l0.46,5.93l-0.22,0.02c-0.89,0.07-1.44-0.29-1.67-1.08l-0.11-0.64l-8.45,4.14l8.91,2.66l0.06-1.59
		C482.17,232.42,482.78,232.77,482.85,233.68z"/>
	<path class="st1" d="M485.14,257.1l2.11,4.36c-0.34,0.24-0.84,0.43-1.51,0.6c-0.67,0.16-1.23,0.23-1.68,0.22l-0.26-4.91l-3.42,3.47
		c-0.36-0.24-0.74-0.65-1.12-1.22c-0.38-0.57-0.62-1.09-0.7-1.55l4.41-1.76l-4.24-2.02c0.12-0.43,0.39-0.93,0.81-1.49
		c0.42-0.56,0.83-0.94,1.2-1.14l3.12,3.65l0.61-4.85c0.5,0.02,1.07,0.13,1.72,0.33c0.66,0.2,1.13,0.44,1.43,0.72l-2.48,4.19
		l4.84-0.82c0.15,0.44,0.2,0.99,0.16,1.65c-0.04,0.66-0.15,1.2-0.31,1.63L485.14,257.1z"/>
	<path class="st1" d="M483.85,274.46l1.78,4.5c-0.36,0.21-0.87,0.37-1.55,0.48c-0.68,0.11-1.24,0.14-1.69,0.09l0.11-4.92l-3.66,3.21
		c-0.34-0.27-0.69-0.7-1.03-1.3c-0.34-0.6-0.54-1.13-0.59-1.59l4.53-1.43l-4.08-2.32c0.15-0.42,0.46-0.9,0.92-1.43
		c0.46-0.53,0.89-0.88,1.29-1.04l2.85,3.87l0.97-4.79c0.49,0.05,1.06,0.21,1.7,0.45c0.64,0.25,1.1,0.52,1.38,0.82l-2.78,4l4.88-0.46
		c0.12,0.45,0.13,1,0.04,1.66c-0.09,0.65-0.24,1.19-0.43,1.61L483.85,274.46z"/>
	<path class="st1" d="M481.27,291.68l1.44,4.62c-0.37,0.18-0.9,0.31-1.58,0.37c-0.68,0.06-1.25,0.05-1.7-0.03l0.48-4.89l-3.89,2.93
		c-0.32-0.29-0.63-0.75-0.93-1.37c-0.29-0.62-0.45-1.17-0.47-1.63l4.62-1.09l-3.89-2.62c0.18-0.41,0.52-0.86,1.03-1.35
		c0.5-0.5,0.96-0.81,1.36-0.94l2.55,4.07l1.32-4.7c0.49,0.09,1.04,0.28,1.66,0.58c0.62,0.29,1.05,0.6,1.31,0.92l-3.07,3.78
		l4.91-0.09c0.08,0.46,0.05,1.01-0.09,1.66c-0.14,0.65-0.32,1.17-0.55,1.57L481.27,291.68z"/>
	<path class="st1" d="M479.42,314.93l-1.94,6.44l-0.24-0.07c-0.47-0.14-0.78-0.31-0.92-0.5c-0.24-0.35-0.32-0.73-0.24-1.14l0.24-1
		l-14.4-4.33c-1.72-0.52-3-1.41-3.83-2.67c-0.83-1.26-1.01-2.69-0.53-4.27c0.25-0.83,0.67-1.45,1.27-1.87
		c0.6-0.41,1.2-0.53,1.8-0.35s1.04,0.5,1.3,0.94c0.26,0.45,0.28,1.03,0.04,1.76c-1.36-0.37-2.18-0.07-2.46,0.88
		c-0.14,0.46,0.01,0.87,0.45,1.24c0.44,0.37,1.32,0.75,2.65,1.15l14.58,4.38l0.01-0.03l0.86-2.2
		C479.23,313.52,479.68,314.06,479.42,314.93z"/>
	<path class="st1" d="M452.68,331.37c-1.06-0.4-1.33-1.3-0.81-2.7c0.53-1.4,1.38-2.07,2.57-2c-0.59-1.66-0.61-3.23-0.05-4.72
		c0.56-1.49,1.34-2.51,2.35-3.06c1.01-0.55,2.14-0.59,3.38-0.13c1.24,0.46,2.09,1.32,2.55,2.56c0.46,1.24,0.3,2.91-0.48,5
		c-0.34,0.91-0.75,1.77-1.23,2.58l1.63,0.61c2.46,0.92,4.05,0.42,4.76-1.49c0.29-0.77,0.26-1.49-0.09-2.14s-0.92-1.14-1.7-1.48
		c0.19-0.68,0.51-1.18,0.96-1.51c0.45-0.33,0.98-0.38,1.58-0.15c0.89,0.33,1.45,1.07,1.69,2.21c0.24,1.14,0.06,2.49-0.53,4.07
		c-0.59,1.58-1.51,2.74-2.77,3.5c-1.25,0.76-2.87,0.76-4.84,0.03l-8.01-3L452.68,331.37z M458.92,328.15
		c0.62-0.65,1.1-1.44,1.44-2.36s0.42-1.71,0.23-2.38c-0.19-0.67-0.64-1.13-1.35-1.4c-0.71-0.26-1.33-0.27-1.87,0
		c-0.54,0.26-0.98,0.85-1.33,1.77c-0.34,0.92-0.35,2.02-0.01,3.29L458.92,328.15z"/>
	<path class="st1" d="M462.42,344.31l-0.52-0.27c-0.41-0.19-0.64-0.54-0.68-1.03c-0.01-0.19,0.12-0.62,0.36-1.3l-9.51-0.71
		l6.63,6.86l0.78-1.31c1.1,0.37,1.46,0.97,1.08,1.8l-1.81,3.91c-1.03-0.48-1.43-1.05-1.19-1.71l0.13-0.35l-10.04-10.79l0.77-1.66
		l14.56,0.79l0.73-1.13c1.07,0.45,1.44,1.03,1.11,1.74L462.42,344.31z"/>
	<path class="st1" d="M438.09,360.23c-0.99-0.55-1.12-1.48-0.4-2.79s1.67-1.84,2.84-1.59c-0.34-1.73-0.12-3.29,0.65-4.68
		c0.77-1.39,1.7-2.28,2.78-2.67c1.08-0.39,2.2-0.27,3.36,0.38c1.16,0.64,1.87,1.61,2.14,2.91c0.27,1.3-0.14,2.92-1.22,4.87
		c-0.47,0.85-1.01,1.64-1.6,2.37l1.52,0.84c2.29,1.28,3.94,1.02,4.93-0.77c0.4-0.72,0.48-1.43,0.23-2.13
		c-0.25-0.7-0.74-1.27-1.46-1.72c0.29-0.64,0.68-1.09,1.18-1.35s1.03-0.23,1.58,0.08c0.83,0.46,1.28,1.27,1.34,2.43
		s-0.31,2.47-1.13,3.95s-1.91,2.49-3.26,3.05c-1.35,0.56-2.95,0.33-4.79-0.7l-7.48-4.16L438.09,360.23z M444.74,357.97
		c0.71-0.55,1.3-1.26,1.78-2.11c0.48-0.86,0.67-1.63,0.58-2.32c-0.09-0.69-0.46-1.22-1.12-1.58c-0.66-0.37-1.27-0.46-1.85-0.28
		c-0.57,0.18-1.1,0.7-1.57,1.55s-0.64,1.94-0.5,3.25L444.74,357.97z"/>
	<path class="st1" d="M445.5,367.51c1.17,0.76,1.78,1.84,1.82,3.25c0.05,1.41-0.31,2.69-1.06,3.84s-1.55,1.98-2.4,2.47
		s-1.68,0.48-2.47-0.04c-0.55-0.36-0.86-0.82-0.91-1.37c-0.05-0.55,0.13-1.06,0.54-1.54c0.61,0.42,1.28,0.54,2,0.34
		s1.3-0.63,1.74-1.29s0.65-1.28,0.63-1.85c-0.02-0.57-0.26-1-0.71-1.29c-0.45-0.29-0.99-0.29-1.63,0c-0.63,0.29-1.42,0.77-2.35,1.43
		c-0.94,0.66-1.62,1.11-2.04,1.35c-0.43,0.24-0.93,0.47-1.51,0.68c-1.11,0.41-2.24,0.24-3.39-0.52c-1.16-0.76-1.84-1.89-2.06-3.37
		c-0.22-1.48,0.21-3.03,1.27-4.63c0.77-1.15,1.66-2.02,2.67-2.61c1.01-0.59,1.93-0.61,2.76-0.07c0.53,0.37,0.82,0.83,0.88,1.38
		c0.06,0.56-0.08,1.08-0.4,1.59c-0.88-0.4-1.71-0.48-2.5-0.25c-0.79,0.23-1.44,0.73-1.96,1.51c-0.52,0.78-0.79,1.5-0.8,2.16
		s0.27,1.17,0.83,1.54c0.56,0.37,1.13,0.44,1.69,0.21c0.57-0.22,1.27-0.64,2.12-1.25c0.85-0.61,1.51-1.05,1.98-1.34
		c0.47-0.29,1.02-0.55,1.64-0.78C443.12,366.6,444.33,366.75,445.5,367.51z"/>
	<path class="st1" d="M436.91,387.91c-0.85,1.14-1.78,1.89-2.79,2.23c-1.01,0.34-1.86,0.25-2.58-0.28
		c-0.71-0.53-1.06-1.09-1.04-1.67s0.23-1.09,0.64-1.53c0.67,0.48,1.41,0.72,2.21,0.72s1.48-0.38,2.05-1.14
		c0.73-0.98,0.87-2.05,0.41-3.22c-0.46-1.17-1.4-2.28-2.82-3.34c-3.16-2.36-5.66-2.32-7.49,0.13c-0.83,1.11-1.21,2.53-1.13,4.26
		c-0.18,0.07-0.4,0.08-0.65,0.02c-0.25-0.06-0.44-0.14-0.58-0.24c-0.51-0.38-0.68-1.25-0.49-2.61c0.19-1.36,0.73-2.63,1.62-3.82
		c1.26-1.69,2.8-2.59,4.62-2.7c1.82-0.11,3.74,0.58,5.74,2.06c2,1.48,3.23,3.24,3.68,5.28S438.3,386.06,436.91,387.91z"/>
	<path class="st1" d="M426.31,399.68c-0.17,1.05-0.47,1.82-0.9,2.31c-0.42,0.5-0.91,0.78-1.47,0.86c-0.56,0.08-1.19-0.18-1.91-0.79
		c-0.71-0.61-1.09-1.3-1.12-2.06c0.03-0.41,0.3-0.87,0.81-1.38c0.68,0.58,1.2,0.9,1.56,0.97s0.68-0.06,0.95-0.37
		c0.64-0.75,0.8-1.98,0.46-3.69l-7.05-6.02l-1.81,1.84c-0.96-0.66-1.14-1.34-0.54-2.05l4.41-5.16l0.19,0.16
		c0.72,0.62,0.85,1.26,0.39,1.93l-0.64,0.84l8.74,7.47l1.08-1.03c0.41-0.38,1-0.25,1.77,0.41l-2.79,4.27l-2.05-1.42l-0.06,0.07
		C426.5,397.68,426.49,398.63,426.31,399.68z"/>
	<path class="st1" d="M406.16,399.26l4.51-4.73l0.18,0.17c0.69,0.66,0.78,1.3,0.29,1.95l-0.7,0.83l8.41,8.02l1.05-0.88
		c0.5-0.44,1.13-0.29,1.9,0.44l-3.36,4.42l-10.14-9.67l-1.7,1.51C405.68,400.6,405.54,399.91,406.16,399.26z M421.05,412.21
		c-0.42-0.4-0.63-0.87-0.65-1.41s0.18-1.02,0.57-1.43c0.39-0.41,0.86-0.62,1.4-0.64c0.54-0.01,1.02,0.18,1.44,0.58
		c0.42,0.4,0.63,0.87,0.65,1.41c0.01,0.54-0.18,1.02-0.57,1.43c-0.39,0.41-0.86,0.62-1.4,0.64
		C421.95,412.8,421.47,412.61,421.05,412.21z"/>
	<path class="st1" d="M407.89,419.69c-1.25,1.15-2.73,1.68-4.44,1.59c-1.71-0.09-3.47-1.08-5.27-2.97c-1.8-1.89-2.76-3.88-2.91-5.96
		c-0.14-2.09,0.69-3.97,2.5-5.64c0.85-0.78,1.78-1.35,2.79-1.69l-3.38-3.67l-1.79,1.4c-0.88-0.77-0.97-1.47-0.29-2.1l4.79-4.41
		l0.15,0.16c0.66,0.71,0.72,1.38,0.18,1.98l-0.76,0.78l12.34,13.38l1.2-0.85c0.47-0.35,1.04-0.15,1.73,0.6l-3.25,3.84l-1.45-1.11
		C409.85,416.98,409.14,418.54,407.89,419.69z M402.52,407.14c-1.39,0.08-2.58,0.57-3.57,1.48c-0.99,0.91-1.32,1.99-0.99,3.23
		c0.33,1.24,1.09,2.51,2.28,3.8c1.19,1.29,2.39,2.1,3.59,2.43c1.2,0.33,2.25,0.08,3.15-0.75c0.9-0.83,1.42-2.04,1.57-3.64
		L402.52,407.14z"/>
	<path class="st1" d="M395.27,427.37l-5.5-6.88c-1.16-1.45-2.19-1.82-3.1-1.1c-0.58,0.46-1.01,0.93-1.29,1.41
		c-0.28,0.48-0.52,1.12-0.71,1.94c-0.09,0.05-0.27,0.03-0.52-0.06c-0.25-0.09-0.46-0.23-0.61-0.42c-0.45-0.57-0.43-1.4,0.07-2.5
		c0.5-1.1,1.18-2,2.05-2.69c1.29-1.03,2.46-1.37,3.5-1.01c1.04,0.36,2.08,1.18,3.11,2.47l5.48,6.85l1.91-1.53
		c0.79,0.98,0.85,1.74,0.19,2.27l-0.92,0.74l2.4,3l-2.18,2.34l-2.69-3.37l-4.43,3.54c-0.2-0.18-0.36-0.43-0.47-0.74
		c-0.27-0.6-0.22-1.08,0.16-1.44L395.27,427.37z"/>
	<path class="st1" d="M376.94,445.3l-2.39,4.21c-0.39-0.15-0.84-0.45-1.35-0.91c-0.51-0.46-0.89-0.88-1.13-1.26l3.9-3l-4.8-0.84
		c-0.01-0.44,0.12-0.97,0.37-1.61s0.54-1.13,0.87-1.46l3.95,2.63l-0.75-4.63c0.42-0.15,0.99-0.2,1.69-0.17
		c0.71,0.03,1.24,0.14,1.62,0.35l-1.23,4.64l4.34-2.25c0.27,0.42,0.5,0.95,0.71,1.61c0.21,0.65,0.28,1.18,0.22,1.59l-4.86,0.34
		l3.42,3.52c-0.28,0.37-0.7,0.73-1.27,1.07c-0.57,0.34-1.08,0.56-1.52,0.67L376.94,445.3z"/>
	<path class="st1" d="M361.91,454.08l-2.7,4.02c-0.38-0.17-0.8-0.51-1.28-1s-0.82-0.94-1.04-1.34l4.11-2.7l-4.72-1.2
		c0.03-0.44,0.19-0.96,0.49-1.58c0.3-0.62,0.63-1.08,0.98-1.39l3.75,2.92l-0.4-4.68c0.43-0.11,1-0.13,1.7-0.05
		c0.7,0.08,1.23,0.24,1.59,0.47l-1.58,4.54l4.49-1.92c0.23,0.44,0.43,0.99,0.59,1.65c0.16,0.67,0.19,1.2,0.1,1.6l-4.87-0.03
		l3.15,3.76c-0.3,0.35-0.75,0.67-1.34,0.97s-1.11,0.48-1.56,0.56L361.91,454.08z"/>
	<path class="st1" d="M346.25,461.72l-2.99,3.8c-0.36-0.2-0.76-0.57-1.2-1.1s-0.75-1-0.93-1.42l4.3-2.38l-4.62-1.55
		c0.06-0.43,0.26-0.95,0.6-1.54c0.35-0.59,0.71-1.03,1.08-1.31l3.52,3.19l-0.05-4.69c0.44-0.08,1-0.06,1.7,0.08s1.21,0.33,1.55,0.58
		l-1.91,4.41l4.62-1.58c0.2,0.45,0.36,1.02,0.46,1.69c0.11,0.68,0.1,1.21-0.02,1.6l-4.85-0.39l2.85,3.99
		c-0.33,0.33-0.8,0.62-1.41,0.87c-0.61,0.25-1.15,0.4-1.6,0.44L346.25,461.72z"/>
	<path class="st1" d="M316.12,454.37l6.28-2.04l0.08,0.24c0.3,0.92,0.08,1.55-0.66,1.88l-1.01,0.39l5.34,16.45l2.18-0.51
		c0.48,1.08,0.29,1.76-0.57,2.04l-6.31,2.05l-0.08-0.24c-0.3-0.92-0.08-1.55,0.66-1.88l1.04-0.4l-5.34-16.45l-0.03,0.01l-2.18,0.51
		C315.03,455.34,315.23,454.66,316.12,454.37z"/>
	<path class="st1" d="M305.91,457.27l6.28-1.71l0.06,0.24c0.13,0.48,0.15,0.82,0.05,1.01c-0.17,0.39-0.45,0.66-0.84,0.81l-1.03,0.34
		l4.63,17.02l1.35-0.24c0.66-0.09,1.13,0.37,1.4,1.39l-5.16,2.05l-5.25-19.33l-2.17,0.4C304.8,458.17,305.03,457.51,305.91,457.27z"
		/>
	<path class="st1" d="M296.24,459.52l6.35-1.42l0.05,0.24c0.11,0.48,0.11,0.82,0,1.02c-0.19,0.38-0.48,0.64-0.88,0.77l-1.04,0.3
		l3.83,17.22l1.36-0.17c0.66-0.06,1.11,0.42,1.34,1.45l-5.25,1.8l-4.35-19.55l-2.19,0.3C295.1,460.37,295.36,459.72,296.24,459.52z"
		/>
	<path class="st1" d="M286.28,475.11l0.06,0.37c0.08,0.49,0.06,0.82-0.04,0.98s-0.18,0.28-0.23,0.35c-0.12,0.17-0.33,0.27-0.64,0.32
		l-4.35,0.67l-2.06-13.36l-0.99,0.09c-0.62,0.07-1.01-0.44-1.18-1.54l4.04-1.03l0.81,1.6c1.25-1.51,2.65-2.38,4.19-2.62
		c1.54-0.24,2.93,0.08,4.18,0.94c1.24,0.86,2.03,2.38,2.36,4.54l1.16,7.51l2.28-0.29l0.04,0.28c0.16,1.04-0.15,1.62-0.92,1.74
		l-4.23,0.65l-1.45-9.41c-0.4-2.61-1.68-3.76-3.82-3.43c-1.16,0.18-2.21,0.78-3.14,1.8l1.56,10.14L286.28,475.11z"/>
	<path class="st1" d="M275.43,474.33c0.11,1.39-0.38,2.53-1.47,3.43c-1.09,0.9-2.32,1.4-3.69,1.51c-1.37,0.11-2.51-0.02-3.42-0.4
		c-0.91-0.37-1.4-1.03-1.48-1.98c-0.05-0.66,0.12-1.18,0.53-1.55c0.41-0.38,0.92-0.54,1.54-0.51c0.04,0.74,0.36,1.34,0.95,1.79
		s1.29,0.65,2.08,0.6c0.79-0.05,1.41-0.26,1.85-0.63c0.44-0.37,0.63-0.82,0.59-1.35s-0.37-0.97-0.99-1.29
		c-0.62-0.32-1.47-0.66-2.57-0.99s-1.87-0.6-2.32-0.79c-0.45-0.19-0.94-0.45-1.46-0.79c-1-0.62-1.55-1.63-1.65-3.01
		c-0.1-1.38,0.37-2.61,1.42-3.69c1.04-1.08,2.53-1.68,4.44-1.81c1.38-0.09,2.61,0.09,3.7,0.53c1.08,0.44,1.66,1.16,1.74,2.15
		c0.03,0.64-0.16,1.15-0.56,1.54c-0.41,0.38-0.91,0.6-1.5,0.65c-0.22-0.94-0.66-1.65-1.32-2.13c-0.66-0.49-1.46-0.7-2.4-0.63
		c-0.94,0.06-1.67,0.29-2.2,0.69s-0.77,0.93-0.71,1.6c0.05,0.67,0.34,1.16,0.86,1.47c0.52,0.31,1.28,0.62,2.28,0.92
		c1,0.3,1.75,0.55,2.27,0.75c0.51,0.2,1.05,0.47,1.62,0.82C274.7,471.9,275.32,472.94,275.43,474.33z"/>
	<path class="st1" d="M256.77,477.58l-0.17-8.8c-0.04-1.86-0.63-2.78-1.79-2.75c-0.74,0.01-1.37,0.12-1.88,0.33
		c-0.51,0.21-1.09,0.57-1.75,1.1c-0.1-0.02-0.23-0.14-0.38-0.37c-0.15-0.22-0.23-0.46-0.23-0.71c-0.01-0.72,0.51-1.37,1.57-1.94
		c1.06-0.57,2.15-0.86,3.27-0.88c1.65-0.03,2.78,0.41,3.39,1.33c0.61,0.92,0.93,2.2,0.96,3.86l0.17,8.77l2.45-0.05
		c0.02,1.26-0.39,1.9-1.23,1.92l-1.18,0.02l0.08,3.84l-3.15,0.53l-0.08-4.31l-5.67,0.11c-0.05-0.27-0.02-0.56,0.08-0.87
		c0.15-0.64,0.49-0.99,1-1.04L256.77,477.58z"/>
	<path class="st1" d="M240.46,478.89c-0.93,0.51-1.72,0.75-2.37,0.73s-1.18-0.23-1.59-0.62c-0.41-0.39-0.59-1.05-0.56-1.99
		c0.04-0.94,0.35-1.66,0.92-2.15c0.34-0.23,0.87-0.31,1.59-0.21c-0.04,0.89,0.03,1.5,0.21,1.82c0.17,0.33,0.47,0.5,0.88,0.52
		c0.99,0.04,2.05-0.6,3.18-1.92l0.37-9.26l-2.56-0.29c-0.08-1.16,0.35-1.72,1.28-1.69l6.78,0.27l-0.01,0.25
		c-0.04,0.95-0.46,1.45-1.27,1.5l-1.06,0.02l-0.46,11.49l1.48,0.21c0.56,0.08,0.81,0.63,0.77,1.64l-5.08,0.45l-0.15-2.49l-0.09,0
		C242.14,477.8,241.39,478.38,240.46,478.89z"/>
	<path class="st1" d="M220.49,463.16c0.12-1.13,0.93-1.61,2.42-1.45c1.49,0.16,2.35,0.83,2.57,2c1.46-0.98,2.98-1.39,4.56-1.21
		c1.58,0.17,2.76,0.68,3.54,1.53c0.78,0.84,1.1,1.92,0.95,3.24c-0.14,1.31-0.76,2.35-1.85,3.1c-1.09,0.75-2.75,1.01-4.96,0.76
		c-0.97-0.11-1.9-0.29-2.81-0.56l-0.19,1.73c-0.29,2.61,0.59,4.03,2.62,4.25c0.82,0.09,1.5-0.12,2.05-0.62
		c0.54-0.5,0.88-1.17,1.02-2.01c0.71,0.01,1.27,0.2,1.7,0.56c0.43,0.36,0.61,0.86,0.54,1.49c-0.1,0.94-0.68,1.67-1.72,2.18
		c-1.04,0.51-2.4,0.67-4.08,0.49c-1.67-0.18-3.03-0.79-4.07-1.82c-1.04-1.03-1.45-2.59-1.22-4.69l0.93-8.5L220.49,463.16z
		 M225.16,468.41c0.78,0.44,1.66,0.71,2.64,0.82c0.98,0.11,1.76-0.01,2.36-0.36c0.6-0.35,0.94-0.9,1.02-1.65
		c0.08-0.75-0.07-1.35-0.46-1.81c-0.39-0.46-1.07-0.74-2.04-0.85c-0.98-0.11-2.04,0.16-3.19,0.8L225.16,468.41z"/>
	<path class="st1" d="M211.7,474.1l1.54-8.67c0.33-1.83-0.08-2.85-1.22-3.05c-0.73-0.13-1.37-0.14-1.91-0.04
		c-0.54,0.1-1.19,0.35-1.93,0.74c-0.1-0.04-0.2-0.18-0.3-0.43c-0.1-0.25-0.13-0.5-0.09-0.74c0.13-0.71,0.77-1.24,1.92-1.59
		s2.28-0.43,3.38-0.23c1.63,0.29,2.65,0.94,3.07,1.96c0.42,1.02,0.48,2.34,0.19,3.97l-1.54,8.64l2.41,0.43
		c-0.22,1.24-0.75,1.79-1.58,1.64l-1.16-0.21l-0.67,3.79l-3.19-0.1l0.76-4.24l-5.58-1c0.01-0.27,0.09-0.55,0.24-0.84
		c0.28-0.6,0.67-0.88,1.19-0.83L211.7,474.1z"/>
	<path class="st1" d="M204.57,466.56c-0.62,2.51-1.74,4.35-3.36,5.54c-1.63,1.18-3.49,1.51-5.6,0.98s-3.6-1.6-4.49-3.21
		c-0.88-1.62-1.02-3.69-0.39-6.23c0.62-2.54,1.74-4.38,3.36-5.52c1.62-1.14,3.52-1.44,5.72-0.89c2.2,0.55,3.69,1.61,4.49,3.2
		C205.1,462.01,205.19,464.05,204.57,466.56z M196.13,471.05c1.18,0.28,2.22-0.04,3.14-0.98s1.6-2.3,2.05-4.11
		c0.45-1.8,0.5-3.32,0.14-4.53c-0.36-1.22-1.12-1.97-2.3-2.25c-1.18-0.28-2.21,0.01-3.11,0.88c-0.9,0.87-1.57,2.21-2.02,4.02
		c-0.45,1.8-0.5,3.35-0.16,4.62C194.2,469.99,194.96,470.77,196.13,471.05z"/>
	<path class="st1" d="M178.27,467.16c-1.03,0.24-1.86,0.26-2.48,0.05c-0.62-0.2-1.07-0.55-1.36-1.03c-0.29-0.48-0.28-1.17,0.01-2.07
		c0.29-0.89,0.78-1.5,1.47-1.82c0.39-0.13,0.92-0.06,1.59,0.23c-0.28,0.84-0.38,1.45-0.3,1.81c0.08,0.36,0.31,0.61,0.71,0.74
		c0.94,0.31,2.14-0.02,3.58-0.98l2.88-8.81l-2.39-0.98c0.24-1.14,0.8-1.56,1.69-1.28l6.45,2.11l-0.08,0.24
		c-0.29,0.9-0.84,1.27-1.63,1.1l-1.02-0.27l-3.57,10.93l1.37,0.61c0.51,0.23,0.61,0.83,0.3,1.79l-5.01-0.95l0.53-2.43l-0.09-0.03
		C180.19,466.58,179.3,466.92,178.27,467.16z"/>
	<path class="st1" d="M155.34,460.68l-4.83,0.29c-0.09-0.4-0.08-0.94,0.02-1.62c0.1-0.68,0.25-1.23,0.44-1.64l4.64,1.63l-1.92-4.48
		c0.36-0.25,0.88-0.44,1.55-0.57c0.67-0.14,1.24-0.16,1.7-0.06l-0.04,4.75l3.48-3.16c0.35,0.27,0.71,0.71,1.07,1.32
		c0.36,0.61,0.56,1.12,0.59,1.55l-4.56,1.5l4.25,2.41c-0.21,0.45-0.52,0.94-0.96,1.47c-0.43,0.53-0.84,0.88-1.21,1.05l-2.93-3.88
		l-1.08,4.79c-0.46-0.03-0.99-0.19-1.59-0.48c-0.59-0.29-1.06-0.59-1.39-0.91L155.34,460.68z"/>
	<path class="st1" d="M139.77,452.87l-4.84-0.07c-0.06-0.41-0.01-0.95,0.14-1.62c0.15-0.67,0.34-1.2,0.56-1.6l4.5,1.97l-1.58-4.61
		c0.38-0.22,0.91-0.37,1.59-0.45c0.68-0.08,1.25-0.06,1.7,0.06l-0.4,4.73l3.7-2.89c0.33,0.3,0.65,0.76,0.97,1.4
		c0.31,0.63,0.47,1.16,0.47,1.59l-4.66,1.16l4.06,2.72c-0.24,0.43-0.59,0.9-1.07,1.4c-0.47,0.5-0.9,0.82-1.28,0.96l-2.64-4.09
		l-1.44,4.69c-0.46-0.06-0.97-0.26-1.55-0.6c-0.57-0.34-1.01-0.67-1.32-1.01L139.77,452.87z"/>
	<path class="st1" d="M124.85,443.93l-4.82-0.43c-0.03-0.41,0.06-0.95,0.26-1.6c0.2-0.66,0.43-1.17,0.68-1.56l4.35,2.3l-1.23-4.71
		c0.39-0.19,0.93-0.3,1.62-0.33s1.25,0.03,1.69,0.19l-0.75,4.69l3.91-2.6c0.31,0.32,0.6,0.81,0.86,1.46
		c0.27,0.65,0.38,1.19,0.36,1.62l-4.74,0.81l3.85,3.01c-0.27,0.42-0.66,0.85-1.17,1.31c-0.51,0.46-0.96,0.75-1.35,0.86l-2.32-4.28
		l-1.78,4.57c-0.45-0.1-0.95-0.33-1.5-0.71c-0.54-0.38-0.96-0.75-1.24-1.1L124.85,443.93z"/>
	<path class="st1" d="M105.28,434.5l-5.36-4.47c-1.95-1.63-3.11-3.29-3.47-4.99c-0.36-1.7,0.05-3.25,1.23-4.67
		c1.48-1.78,3.21-2.63,5.17-2.55c1.97,0.08,4,0.99,6.09,2.74l1.26,1.05l3.95-4.74l-1.83-1.77c0.66-0.98,1.35-1.18,2.06-0.58
		l5.28,4.41l-0.16,0.19c-0.62,0.75-1.27,0.89-1.94,0.44l-0.87-0.65l-11.12,13.33l1.62,1.59
		C106.49,434.76,105.85,434.98,105.28,434.5z M109.1,422.96l-1-0.83c-1.41-1.18-2.77-1.75-4.08-1.71s-2.47,0.67-3.49,1.89
		c-1.02,1.22-1.45,2.41-1.28,3.57s0.91,2.24,2.23,3.23l1.52,1.18L109.1,422.96z"/>
	<path class="st1" d="M94.05,395.57l4.59,4.57l-0.17,0.18c-0.67,0.67-1.32,0.76-1.95,0.25l-0.79-0.7l-5.42,5.45
		c-0.93,0.94-1.41,1.8-1.43,2.6c-0.02,0.8,0.4,1.62,1.25,2.46c0.85,0.84,2.09,1.31,3.73,1.39l6.84-6.88l-1.47-1.73
		c0.73-0.91,1.42-1.04,2.06-0.4l4.64,4.61l-0.18,0.18c-0.67,0.67-1.32,0.76-1.95,0.25l-0.81-0.72l-12.42,12.48l0.88,1.05
		c0.41,0.52,0.24,1.16-0.5,1.91l-4.37-3.43l5.68-5.71c-1.99-0.05-3.55-0.64-4.68-1.77c-1.14-1.13-1.72-2.44-1.74-3.94
		c-0.03-1.5,0.73-3.02,2.28-4.58l5.33-5.41l-1.47-1.73C92.69,395.04,93.39,394.91,94.05,395.57z"/>
	<path class="st1" d="M86.2,397.97c-1.96,1.68-3.95,2.52-5.96,2.54c-2.01,0.01-3.72-0.81-5.12-2.47c-1.4-1.65-1.99-3.4-1.77-5.23
		c0.22-1.83,1.33-3.59,3.32-5.29c1.99-1.7,3.97-2.54,5.95-2.53c1.98,0.02,3.7,0.89,5.16,2.61c1.46,1.73,2.06,3.46,1.78,5.22
		C89.29,394.58,88.17,396.29,86.2,397.97z M76.73,396.7c0.79,0.92,1.83,1.26,3.12,1.04c1.29-0.22,2.64-0.94,4.06-2.14
		s2.34-2.4,2.76-3.6c0.42-1.2,0.24-2.25-0.55-3.17s-1.8-1.28-3.04-1.1c-1.24,0.18-2.57,0.88-3.99,2.08
		c-1.42,1.2-2.36,2.42-2.83,3.66C75.78,394.71,75.94,395.78,76.73,396.7z"/>
	<path class="st1" d="M67.39,384.49l7.08-5.23c1.5-1.1,1.9-2.12,1.21-3.05c-0.44-0.6-0.89-1.05-1.36-1.35
		c-0.46-0.3-1.1-0.56-1.91-0.79c-0.04-0.1-0.02-0.27,0.08-0.52c0.1-0.25,0.25-0.45,0.44-0.6c0.58-0.43,1.41-0.37,2.49,0.17
		c1.08,0.54,1.95,1.26,2.61,2.16c0.98,1.33,1.27,2.51,0.88,3.53c-0.4,1.03-1.26,2.03-2.59,3.01l-7.06,5.21l1.45,1.97
		c-1.01,0.75-1.77,0.78-2.28,0.1l-0.7-0.95l-3.09,2.28l-2.25-2.27l3.47-2.56l-3.37-4.56c0.19-0.19,0.44-0.34,0.75-0.44
		c0.61-0.25,1.09-0.17,1.43,0.22L67.39,384.49z"/>
	<path class="st1" d="M67.4,374.11c-2.17,1.4-4.25,1.97-6.25,1.71s-3.57-1.31-4.74-3.14c-1.17-1.83-1.52-3.63-1.05-5.42
		c0.47-1.78,1.8-3.38,4-4.8c2.2-1.42,4.28-1.98,6.23-1.7c1.96,0.28,3.55,1.38,4.76,3.29c1.22,1.91,1.57,3.71,1.06,5.41
		C70.91,371.16,69.57,372.71,67.4,374.11z M58.19,371.57c0.66,1.01,1.64,1.5,2.95,1.45c1.31-0.05,2.74-0.57,4.31-1.57
		c1.57-1,2.64-2.07,3.22-3.2c0.58-1.13,0.54-2.2-0.12-3.21c-0.66-1.01-1.61-1.51-2.87-1.5c-1.25,0.01-2.66,0.52-4.23,1.52
		c-1.57,1-2.67,2.08-3.3,3.24C57.51,369.47,57.53,370.55,58.19,371.57z"/>
	<path class="st1" d="M54.73,361.31c-1.23,0.67-2.47,0.69-3.73,0.05c-1.26-0.63-2.22-1.55-2.88-2.76c-0.66-1.21-1-2.3-1.03-3.29
		c-0.03-0.98,0.37-1.7,1.21-2.16c0.58-0.32,1.12-0.36,1.63-0.15c0.51,0.22,0.87,0.62,1.1,1.2c-0.66,0.34-1.08,0.87-1.25,1.6
		c-0.17,0.73-0.07,1.44,0.3,2.15s0.81,1.18,1.33,1.43c0.51,0.25,1.01,0.25,1.48-0.01c0.47-0.26,0.73-0.73,0.78-1.43
		c0.04-0.7,0-1.61-0.14-2.75c-0.14-1.14-0.21-1.95-0.22-2.44c-0.01-0.49,0.03-1.04,0.12-1.66c0.16-1.17,0.85-2.08,2.08-2.74
		c1.22-0.65,2.54-0.72,3.95-0.21c1.41,0.52,2.56,1.62,3.47,3.32c0.64,1.23,0.98,2.42,1.02,3.59c0.04,1.17-0.38,1.99-1.25,2.46
		c-0.57,0.29-1.12,0.33-1.63,0.11c-0.52-0.21-0.92-0.58-1.2-1.11c0.77-0.58,1.24-1.27,1.41-2.07c0.18-0.8,0.04-1.62-0.4-2.45
		s-0.95-1.41-1.52-1.73c-0.58-0.32-1.16-0.32-1.75,0c-0.59,0.32-0.92,0.78-0.99,1.39c-0.07,0.6-0.04,1.42,0.09,2.46
		c0.13,1.04,0.21,1.83,0.24,2.38c0.03,0.55,0,1.15-0.09,1.81C56.65,359.65,55.95,360.64,54.73,361.31z"/>
	<path class="st1" d="M51.57,328.96l2.65,5.91l-0.23,0.1c-0.87,0.39-1.5,0.23-1.91-0.47l-0.49-0.94l-7.02,3.14
		c-1.21,0.54-1.96,1.18-2.27,1.92c-0.3,0.74-0.21,1.65,0.28,2.75c0.49,1.09,1.48,1.97,2.98,2.64l8.86-3.96l-0.75-2.14
		c1.01-0.59,1.69-0.46,2.07,0.37l2.67,5.97l-0.23,0.1c-0.87,0.39-1.5,0.23-1.91-0.47l-0.5-0.96l-16.07,7.19l0.44,1.3
		c0.2,0.64-0.19,1.17-1.15,1.6l-2.85-4.77l7.36-3.29c-1.84-0.76-3.08-1.88-3.74-3.34s-0.72-2.9-0.21-4.3
		c0.51-1.41,1.77-2.56,3.77-3.45l6.92-3.13l-0.75-2.14C50.5,327.98,51.19,328.11,51.57,328.96z"/>
	<path class="st1" d="M43.39,328.39c-2.44,0.86-4.59,0.93-6.47,0.22c-1.88-0.71-3.18-2.09-3.89-4.14c-0.71-2.05-0.64-3.89,0.23-5.51
		c0.87-1.63,2.53-2.87,5-3.74s4.62-0.94,6.46-0.22c1.84,0.73,3.13,2.16,3.88,4.3c0.74,2.14,0.67,3.97-0.21,5.51
		C47.49,326.34,45.83,327.53,43.39,328.39z M35.01,323.8c0.41,1.14,1.25,1.83,2.53,2.09s2.8,0.07,4.56-0.54s3.05-1.4,3.87-2.37
		c0.82-0.97,1.03-2.02,0.62-3.16c-0.41-1.14-1.22-1.84-2.45-2.12c-1.22-0.27-2.71-0.11-4.47,0.51s-3.07,1.41-3.96,2.4
		C34.84,321.6,34.6,322.66,35.01,323.8z"/>
	<path class="st1" d="M27.24,305.21c-0.43-1.64-0.2-3.2,0.69-4.67c0.89-1.47,2.59-2.55,5.1-3.25s4.72-0.61,6.63,0.25
		c1.91,0.86,3.17,2.48,3.79,4.86c0.29,1.12,0.35,2.21,0.17,3.25l4.83-1.26l-0.39-2.24c1.09-0.41,1.75-0.17,1.98,0.73l1.64,6.3
		l-0.21,0.05c-0.94,0.24-1.55-0.01-1.83-0.77l-0.33-1.03l-17.61,4.58l0.19,1.46c0.09,0.58-0.36,0.99-1.34,1.25l-1.86-4.67l1.66-0.75
		C28.71,308.21,27.67,306.85,27.24,305.21z M40.84,306.38c0.59-1.26,0.72-2.55,0.38-3.85c-0.34-1.3-1.13-2.1-2.38-2.39
		c-1.25-0.29-2.73-0.22-4.43,0.22c-1.7,0.44-2.98,1.12-3.83,2.02s-1.13,1.95-0.82,3.13c0.31,1.18,1.13,2.21,2.47,3.1L40.84,306.38z"
		/>
	<path class="st1" d="M20.68,279.45l-2.82-3.94c0.29-0.29,0.76-0.57,1.39-0.84c0.63-0.27,1.17-0.44,1.62-0.5l1.09,4.79l2.77-4
		c0.4,0.18,0.84,0.51,1.31,1.01s0.79,0.97,0.96,1.4l-4.04,2.49l4.52,1.27c-0.04,0.44-0.23,0.98-0.55,1.61s-0.65,1.07-0.99,1.32
		l-3.7-3.07l0.22,4.88c-0.49,0.07-1.08,0.06-1.76-0.03c-0.68-0.09-1.19-0.24-1.53-0.47l1.73-4.55l-4.63,1.63
		c-0.22-0.41-0.37-0.94-0.44-1.6c-0.07-0.66-0.06-1.21,0.03-1.66L20.68,279.45z"/>
	<path class="st1" d="M19.01,262.11l-2.52-4.13c0.32-0.27,0.8-0.51,1.45-0.74c0.65-0.22,1.2-0.35,1.65-0.38l0.73,4.86l3.06-3.79
		c0.39,0.21,0.8,0.57,1.23,1.11c0.44,0.53,0.72,1.02,0.85,1.47l-4.22,2.18l4.41,1.6c-0.08,0.44-0.3,0.96-0.67,1.56
		s-0.73,1.02-1.09,1.25l-3.46-3.33l-0.14,4.88c-0.5,0.03-1.08-0.02-1.75-0.16c-0.67-0.13-1.17-0.33-1.49-0.58l2.06-4.41l-4.74,1.28
		c-0.19-0.42-0.3-0.97-0.31-1.63c-0.02-0.66,0.03-1.21,0.15-1.66L19.01,262.11z"/>
	<path class="st1" d="M18.63,244.7l-2.19-4.31c0.33-0.24,0.83-0.45,1.5-0.63c0.66-0.18,1.22-0.26,1.68-0.25l0.35,4.9l3.34-3.54
		c0.37,0.23,0.75,0.63,1.14,1.2c0.39,0.56,0.64,1.08,0.73,1.53l-4.37,1.85l4.28,1.93c-0.11,0.43-0.37,0.93-0.78,1.51
		c-0.41,0.57-0.81,0.96-1.18,1.16l-3.2-3.59l-0.51,4.86c-0.5-0.01-1.07-0.1-1.73-0.29c-0.66-0.19-1.14-0.42-1.45-0.69l2.39-4.24
		l-4.82,0.91c-0.16-0.44-0.22-0.98-0.19-1.65s0.12-1.21,0.27-1.64L18.63,244.7z"/>
	<path class="st1" d="M19.53,200.74l0.82-5.08l0.28,0.04c0.67,0.11,1.09,0.33,1.24,0.67c0.1,0.18,0.12,0.6,0.08,1.24l18.04,9.09
		l-0.44,2.72l-13.9,2.1l12.49,6.66l-0.44,2.75l-19.85,2.58l-0.46,1.68c-1.18-0.06-1.7-0.54-1.56-1.41l1.02-6.37l0.25,0.04
		c0.96,0.15,1.42,0.64,1.37,1.44l-0.11,1.05L34,218.39l-14.06-7.25l0.36-2.27l15.6-1.95l-14.28-6.88l-0.53,2.14
		C19.91,202.12,19.39,201.64,19.53,200.74z"/>
	<path class="st1" d="M34.74,195.85c-2.49-0.67-4.31-1.84-5.46-3.49c-1.14-1.65-1.43-3.53-0.85-5.62s1.68-3.56,3.31-4.41
		c1.64-0.85,3.72-0.93,6.24-0.25c2.52,0.68,4.34,1.84,5.44,3.48c1.1,1.64,1.36,3.55,0.76,5.74c-0.6,2.18-1.7,3.65-3.3,4.42
		C39.28,196.48,37.23,196.53,34.74,195.85z M30.44,187.31c-0.31,1.17-0.01,2.22,0.9,3.16c0.91,0.94,2.26,1.65,4.06,2.14
		s3.3,0.57,4.53,0.25c1.23-0.33,1.99-1.08,2.3-2.25c0.31-1.17,0.04-2.21-0.81-3.13c-0.85-0.92-2.17-1.62-3.97-2.12
		c-1.79-0.49-3.33-0.58-4.62-0.27C31.55,185.41,30.75,186.15,30.44,187.31z"/>
	<path class="st1" d="M34.74,169.57c-0.21-1.04-0.21-1.87,0-2.48c0.22-0.61,0.57-1.06,1.06-1.33s1.18-0.26,2.07,0.05
		c0.89,0.31,1.48,0.82,1.78,1.52c0.12,0.39,0.04,0.92-0.26,1.58c-0.84-0.29-1.44-0.41-1.8-0.34c-0.36,0.07-0.61,0.3-0.75,0.69
		c-0.33,0.94-0.03,2.14,0.9,3.6l8.74,3.08l1.03-2.37c1.13,0.27,1.54,0.84,1.24,1.72l-2.25,6.4l-0.23-0.08
		c-0.9-0.32-1.25-0.87-1.06-1.66l0.29-1.01l-10.85-3.82L34,176.47c-0.24,0.51-0.84,0.59-1.8,0.25l1.06-4.98l2.42,0.59l0.03-0.09
		C35.28,171.5,34.95,170.61,34.74,169.57z"/>
	<path class="st1" d="M56.22,153.73c1.1,0.48,1.33,1.44,0.7,2.89s-1.59,2.03-2.86,1.75c0.61,1.75,0.57,3.41-0.11,4.98
		c-0.68,1.56-1.83,2.65-3.43,3.25C48.9,167.2,46.9,167,44.5,166c-2.4-1-4.09-2.43-5.06-4.29c-0.97-1.86-0.96-3.91,0.02-6.17
		c0.46-1.06,1.09-1.95,1.88-2.67l-3.86-1.69l-0.66,1.2c-0.37,0.65-1.03,0.72-1.96,0.23l1.61-5.32l18.75,8.19L56.22,153.73z
		 M44,154.05c-1.25,0.58-2.14,1.5-2.69,2.75s-0.42,2.38,0.39,3.4s2.01,1.88,3.61,2.58c1.6,0.7,3.01,0.95,4.24,0.75
		c1.23-0.2,2.08-0.85,2.57-1.97c0.49-1.12,0.48-2.44-0.03-3.97L44,154.05z"/>
	<path class="st1" d="M48.61,136.9c0.8-1.49,2.03-2.47,3.68-2.94c1.65-0.47,3.63-0.11,5.94,1.09c2.31,1.2,3.87,2.77,4.69,4.7
		c0.81,1.93,0.64,3.98-0.53,6.14c-0.55,1.02-1.25,1.85-2.09,2.5l4.39,2.37l1.24-1.9c1.08,0.44,1.4,1.07,0.95,1.89l-3.09,5.73
		l-0.19-0.1c-0.85-0.46-1.13-1.07-0.82-1.81l0.46-0.98l-16.01-8.64l-0.86,1.19c-0.33,0.48-0.94,0.48-1.83,0l1.83-4.69l1.73,0.58
		C47.64,140.09,47.81,138.39,48.61,136.9z M57.77,147.02c1.29-0.52,2.26-1.38,2.9-2.56c0.64-1.18,0.6-2.31-0.12-3.37
		c-0.72-1.07-1.85-2.02-3.39-2.85s-2.94-1.21-4.18-1.13c-1.24,0.08-2.15,0.66-2.73,1.73c-0.58,1.07-0.68,2.39-0.3,3.96L57.77,147.02
		z"/>
	<path class="st1" d="M58.28,122.34c0.03-1.06,0.22-1.87,0.57-2.41c0.35-0.55,0.8-0.9,1.34-1.06c0.54-0.16,1.21,0.02,2,0.52
		c0.79,0.51,1.26,1.13,1.39,1.88c0.03,0.41-0.17,0.91-0.62,1.48c-0.75-0.48-1.31-0.73-1.68-0.74c-0.37-0.02-0.67,0.15-0.89,0.5
		c-0.53,0.84-0.52,2.07,0.06,3.71l7.81,4.99l1.54-2.07c1.04,0.52,1.31,1.17,0.81,1.95l-3.65,5.72l-0.21-0.13
		c-0.8-0.51-1.02-1.13-0.66-1.85l0.52-0.92l-9.69-6.19l-0.93,1.17c-0.35,0.44-0.96,0.38-1.81-0.16l2.17-4.61l2.22,1.13l0.05-0.08
		C58.37,124.34,58.26,123.4,58.28,122.34z"/>
	<path class="st1" d="M70.06,118.01l0.47,0.35c1.38,1.02,2.63,1.53,3.76,1.54c1.12,0.01,2.14-0.61,3.06-1.85
		c0.91-1.24,1.34-2.75,1.27-4.55c0.41-0.14,0.81-0.06,1.21,0.24c0.53,0.39,0.72,1.24,0.57,2.54c-0.15,1.3-0.7,2.59-1.64,3.87
		c-1.26,1.71-2.77,2.66-4.51,2.85c-1.75,0.19-3.68-0.5-5.81-2.07s-3.41-3.35-3.84-5.34c-0.43-1.99-0.05-3.8,1.16-5.44
		c1.21-1.64,2.58-2.47,4.11-2.49c1.53-0.02,3.04,0.52,4.53,1.64l1.35,0.99L70.06,118.01z M67.42,111.52
		c-1.12,1.51-0.7,3.26,1.26,5.24l3.72-5.04C70.15,110.14,68.49,110.07,67.42,111.52z"/>
	<path class="st1" d="M74.93,105.6c-1.06-0.9-1.53-2.05-1.4-3.46c0.13-1.4,0.64-2.63,1.53-3.68c0.89-1.05,1.78-1.77,2.69-2.15
		c0.91-0.38,1.72-0.27,2.45,0.34c0.51,0.43,0.75,0.92,0.73,1.47c-0.02,0.55-0.26,1.04-0.72,1.46c-0.55-0.5-1.2-0.69-1.94-0.59
		c-0.74,0.11-1.37,0.46-1.89,1.06c-0.52,0.6-0.81,1.19-0.85,1.75c-0.05,0.57,0.13,1.03,0.54,1.37c0.41,0.35,0.95,0.42,1.61,0.21
		c0.66-0.21,1.5-0.58,2.51-1.12s1.74-0.9,2.2-1.09c0.45-0.18,0.98-0.35,1.59-0.48c1.15-0.27,2.25,0.04,3.3,0.94
		c1.05,0.9,1.59,2.1,1.62,3.6c0.03,1.5-0.58,2.98-1.84,4.43c-0.91,1.04-1.9,1.79-2.98,2.25c-1.08,0.46-1.99,0.37-2.75-0.27
		c-0.48-0.43-0.71-0.92-0.7-1.48c0.01-0.56,0.21-1.07,0.6-1.52c0.82,0.5,1.63,0.69,2.45,0.56c0.81-0.13,1.52-0.55,2.14-1.26
		s0.97-1.39,1.06-2.05c0.09-0.65-0.12-1.2-0.63-1.63c-0.51-0.43-1.06-0.57-1.65-0.42c-0.59,0.15-1.34,0.48-2.26,0.97
		c-0.92,0.5-1.63,0.86-2.13,1.08c-0.5,0.23-1.08,0.42-1.72,0.57C77.17,106.79,75.99,106.5,74.93,105.6z"/>
	<path class="st1" d="M84.07,94.95c-1.01-0.96-1.4-2.14-1.19-3.54c0.22-1.39,0.8-2.59,1.75-3.58c0.95-0.99,1.89-1.65,2.82-1.98
		c0.93-0.33,1.74-0.16,2.42,0.49c0.48,0.46,0.69,0.96,0.64,1.51s-0.32,1.02-0.81,1.41c-0.52-0.53-1.16-0.76-1.9-0.7
		s-1.4,0.38-1.95,0.94c-0.56,0.57-0.88,1.13-0.96,1.7c-0.08,0.56,0.07,1.03,0.46,1.4c0.39,0.37,0.92,0.47,1.6,0.3
		c0.68-0.17,1.53-0.49,2.58-0.97c1.04-0.48,1.79-0.79,2.26-0.95c0.46-0.16,1-0.29,1.61-0.39c1.16-0.2,2.24,0.18,3.24,1.14
		c0.99,0.96,1.46,2.2,1.4,3.7c-0.06,1.5-0.76,2.94-2.11,4.31c-0.97,0.99-2.01,1.67-3.11,2.06c-1.1,0.39-2.01,0.24-2.73-0.44
		c-0.45-0.46-0.65-0.96-0.6-1.52c0.05-0.56,0.28-1.05,0.69-1.48c0.79,0.55,1.59,0.79,2.41,0.71s1.55-0.45,2.21-1.12
		c0.66-0.67,1.05-1.33,1.18-1.98c0.13-0.65-0.04-1.2-0.53-1.67s-1.03-0.64-1.62-0.52c-0.6,0.12-1.37,0.39-2.32,0.83
		c-0.95,0.44-1.68,0.75-2.19,0.95c-0.51,0.19-1.1,0.35-1.75,0.47C86.24,96.27,85.08,95.91,84.07,94.95z"/>
	<path class="st1" d="M102.03,69.38l1.82-4.49c0.4,0.09,0.89,0.33,1.46,0.72c0.57,0.39,1,0.75,1.29,1.1l-3.47,3.49l4.87,0.2
		c0.07,0.43,0.01,0.98-0.15,1.65s-0.39,1.19-0.67,1.56l-4.26-2.08l1.35,4.49c-0.4,0.2-0.95,0.33-1.65,0.4
		c-0.7,0.06-1.25,0.02-1.65-0.13l0.61-4.77l-4,2.8c-0.32-0.38-0.62-0.88-0.92-1.5c-0.29-0.62-0.43-1.13-0.43-1.54l4.77-0.98
		l-3.85-3.04c0.23-0.41,0.6-0.81,1.12-1.22c0.52-0.41,0.99-0.7,1.42-0.87L102.03,69.38z"/>
	<path class="st1" d="M115.77,58.7l2.14-4.34c0.4,0.12,0.86,0.4,1.4,0.83c0.54,0.43,0.94,0.83,1.21,1.19l-3.72,3.22l4.84,0.56
		c0.03,0.44-0.06,0.98-0.27,1.63s-0.48,1.16-0.79,1.5l-4.1-2.39l1.01,4.58c-0.41,0.17-0.97,0.26-1.68,0.27
		c-0.71,0.01-1.25-0.07-1.64-0.25l0.96-4.71l-4.2,2.5c-0.29-0.4-0.56-0.92-0.8-1.56c-0.25-0.64-0.35-1.16-0.31-1.57l4.83-0.62
		l-3.62-3.32c0.26-0.39,0.66-0.77,1.21-1.14c0.55-0.37,1.04-0.62,1.48-0.76L115.77,58.7z"/>
	<path class="st1" d="M130.26,49.06l2.46-4.17c0.38,0.15,0.83,0.46,1.33,0.93c0.5,0.47,0.88,0.89,1.11,1.28l-3.95,2.93l4.78,0.92
		c0,0.44-0.13,0.97-0.4,1.61c-0.26,0.64-0.56,1.12-0.9,1.44l-3.91-2.69l0.67,4.65c-0.42,0.14-0.99,0.19-1.69,0.15
		c-0.7-0.04-1.24-0.17-1.61-0.37l1.31-4.62l-4.37,2.18c-0.26-0.42-0.49-0.96-0.68-1.62c-0.2-0.66-0.26-1.19-0.19-1.59l4.86-0.26
		l-3.36-3.58c0.28-0.37,0.71-0.72,1.29-1.04c0.57-0.33,1.08-0.54,1.53-0.65L130.26,49.06z"/>
	<animateTransform attributeName="transform"
        id="ext"
        type="rotate"
        from="0 251.66 248.60"
        to="-360 251.66 248.60"
        dur="30s"
        repeatCount="indefinite"/>
</g>
<g>
	<path class="st2" d="M251.96,114.77c35.64,0,69.15,13.88,94.36,39.08c25.2,25.2,39.08,58.71,39.08,94.36
		c0,35.64-13.88,69.15-39.08,94.36c-25.2,25.2-58.71,39.08-94.36,39.08c-35.64,0-69.15-13.88-94.36-39.08s-39.08-58.71-39.08-94.36
		c0-35.64,13.88-69.15,39.08-94.36S216.31,114.77,251.96,114.77 M251.96,113.77c-74.25,0-134.44,60.19-134.44,134.44
		s60.19,134.44,134.44,134.44S386.4,322.46,386.4,248.21S326.21,113.77,251.96,113.77L251.96,113.77z"/>
</g>
<g>
	<path class="st2" d="M251.96,48.93c26.9,0,53,5.27,77.57,15.66c23.73,10.04,45.04,24.41,63.34,42.71
		c18.3,18.3,32.67,39.61,42.71,63.34c10.39,24.57,15.66,50.67,15.66,77.57c0,26.9-5.27,53-15.66,77.57
		c-10.04,23.73-24.41,45.04-42.71,63.34c-18.3,18.3-39.61,32.67-63.34,42.71c-24.57,10.39-50.67,15.66-77.57,15.66
		s-53-5.27-77.57-15.66c-23.73-10.04-45.04-24.41-63.34-42.71c-18.3-18.3-32.67-39.61-42.71-63.34
		c-10.39-24.57-15.66-50.67-15.66-77.57c0-26.9,5.27-53,15.66-77.57c10.04-23.73,24.41-45.04,42.71-63.34
		c18.3-18.3,39.61-32.67,63.34-42.71C198.96,54.19,225.05,48.93,251.96,48.93 M251.96,47.93c-110.61,0-200.28,89.67-200.28,200.28
		s89.67,200.28,200.28,200.28s200.28-89.67,200.28-200.28S362.57,47.93,251.96,47.93L251.96,47.93z"/>
</g>
</svg>
