<?xml version="1.0" encoding="utf-8"?>
<!-- Generator: Adobe Illustrator 25.0.0, SVG Export Plug-In . SVG Version: 6.00 Build 0)  -->
<svg version="1.1" id="Calque_1" xmlns="http://www.w3.org/2000/svg" xmlns:xlink="http://www.w3.org/1999/xlink" x="0px" y="0px"
	 viewBox="0 0 776.08 757.92" style="enable-background:new 0 0 776.08 757.92;" xml:space="preserve">
<style type="text/css">
	.st0{fill:#F4F4F4;}
</style>
<path id="Tracé_22" class="st0" d="M388.64,0C174.05-0.05,0.05,173.88,0,388.47c-0.04,167.34,107.07,315.91,265.84,368.76
	c19.4,3.74,25.68-8.45,25.68-18.69V666.2c-108.07,23.51-130.58-45.83-130.58-45.83c-7.14-23.49-22.44-43.66-43.14-56.86
	c-35.25-24.11,2.69-23.59,2.69-23.59c24.97,3.43,46.95,18.21,59.55,40.04c21.96,40.04,72.23,54.7,112.27,32.73
	c0.26-0.14,0.52-0.29,0.78-0.43c1.73-19.71,10.49-38.14,24.67-51.93c-86.28-9.87-177.01-43.18-177.01-192.04
	c-0.54-38.62,13.8-75.96,40.04-104.3c-11.88-33.51-10.55-70.28,3.74-102.84c0,0,32.63-10.43,106.88,39.81
	c63.63-17.41,130.77-17.41,194.39,0c74.17-50.24,106.77-39.81,106.77-39.81c14.3,32.55,15.63,69.34,3.74,102.84
	c26.27,28.32,40.59,65.68,40,104.3c0,149.23-90.88,182.09-177.38,191.7c18.84,19.01,28.55,45.23,26.65,71.93v106.62
	c0,10.32,6.21,22.43,25.94,18.69c203.47-68.59,312.81-289.14,244.21-492.61C702.57,106.9,554.9,0.52,388.46,0.04L388.64,0z"/>
</svg>
