<?xml version="1.0" encoding="utf-8"?>
<!-- Generator: Adobe Illustrator 25.0.0, SVG Export Plug-In . SVG Version: 6.00 Build 0)  -->
<svg version="1.1" id="Calque_1" xmlns="http://www.w3.org/2000/svg" xmlns:xlink="http://www.w3.org/1999/xlink" x="0px" y="0px"
	 viewBox="0 0 40 40" style="enable-background:new 0 0 40 40;" xml:space="preserve">
<style type="text/css">
	.st0{fill:#C4C4C9;}
	.st1{fill:#041E2B;}
</style>
<path class="st0" d="M20,0C9,0,0,9,0,20s9,20,20,20s20-9,20-20S31,0,20,0z M27,20.5h-6v6h-2v-6h-6v-2h6v-6h2v6h6V20.5z"/>
<polygon class="st1" points="27,18.5 27,20.5 21,20.5 21,26.5 19,26.5 19,20.5 13,20.5 13,18.5 19,18.5 19,12.5 21,12.5 21,18.5 "/>
</svg>
