<?xml version="1.0" encoding="utf-8"?>
<!-- Generator: Adobe Illustrator 25.0.0, SVG Export Plug-In . SVG Version: 6.00 Build 0)  -->
<svg version="1.1" id="Calque_1" xmlns="http://www.w3.org/2000/svg" xmlns:xlink="http://www.w3.org/1999/xlink" x="0px" y="0px"
	 viewBox="0 0 89.94 24.06" style="enable-background:new 0 0 89.94 24.06;" xml:space="preserve">
<style type="text/css">
	.st0{enable-background:new    ;}
	.st1{fill:#E3E3E3;}
	.st2{fill:none;stroke:#E3E3E3;stroke-width:2;stroke-linecap:round;stroke-miterlimit:10;}
</style>
<rect x="238.62" y="-3.78" width="530.97" height="367.26"/>
<g class="st0">
	<path class="st1" d="M45.32,3.48v17.61l2.22,0.18c0.08,0.78-0.15,1.17-0.69,1.17h-5.61V22.2c0-0.44,0.13-0.72,0.39-0.84
		c0.12-0.06,0.27-0.1,0.45-0.12l1.5-0.09V3.54l-2.19-0.18c-0.08-0.78,0.15-1.17,0.69-1.17h5.61V2.4c0,0.44-0.13,0.73-0.39,0.87
		c-0.12,0.06-0.27,0.1-0.45,0.12l-1.5,0.09H45.32z"/>
	<path class="st1" d="M65.6,22.44h-5.31v-0.21c0-0.4,0.13-0.65,0.39-0.75c0.14-0.08,0.76-0.15,1.86-0.21v-7.86
		c0-2.98-1.16-4.47-3.48-4.47c-0.84,0-1.62,0.17-2.33,0.51c-0.71,0.34-1.51,0.89-2.39,1.65v10.11l2.13,0.18
		c0.06,0.7-0.17,1.05-0.69,1.05h-5.34v-0.21c0-0.4,0.13-0.65,0.39-0.75c0.14-0.08,0.76-0.15,1.86-0.21V9.15l-1.68-0.18
		c-0.4-0.04-0.6-0.39-0.6-1.05l3.45-0.48l0.42,2.4h0.09c1.68-1.6,3.39-2.4,5.13-2.4c1.28,0,2.38,0.46,3.3,1.37s1.38,2.33,1.38,4.27
		v8.13l2.1,0.18C66.37,22.09,66.14,22.44,65.6,22.44z"/>
	<path class="st1" d="M75.29,21.39c0,0.16,0,0.29,0,0.39c0,0.1-0.01,0.2-0.03,0.3c-0.02,0.1-0.05,0.16-0.09,0.18
		c-0.2,0.12-0.39,0.18-0.57,0.18h-6.06v-0.21c0-0.4,0.13-0.65,0.39-0.75c0.14-0.06,0.74-0.13,1.8-0.21V9.09H68.6
		c0-0.04,0-0.12-0.01-0.24s-0.01-0.21,0-0.27c0.01-0.06,0.03-0.14,0.04-0.24c0.02-0.1,0.05-0.18,0.09-0.24
		c0.1-0.14,0.29-0.21,0.57-0.21h1.44v-1.2c0-1.8,0.34-3.17,1.03-4.11c0.69-0.94,1.7-1.41,3.02-1.41c0.62,0,1.15,0.13,1.59,0.39
		c0.44,0.26,0.66,0.61,0.66,1.04s-0.11,0.75-0.33,0.96c-0.22,0.21-0.5,0.31-0.84,0.31c-0.02-0.46-0.18-0.82-0.48-1.09
		c-0.3-0.27-0.65-0.41-1.05-0.41c-0.68,0-1.17,0.28-1.49,0.83c-0.31,0.55-0.46,1.44-0.46,2.66v2.04h3.63c0.06,0.8-0.18,1.2-0.72,1.2
		h-2.91v12.12L75.29,21.39z"/>
	<path class="st1" d="M83.81,7.44c1.38,0,2.67,0.42,3.87,1.26c0.66,0.48,1.19,1.23,1.59,2.24s0.61,2.24,0.63,3.67
		c0.04,2.46-0.52,4.46-1.69,5.99c-1.17,1.53-2.75,2.29-4.73,2.29c-1.98,0-3.49-0.63-4.53-1.89c-1.04-1.26-1.57-3.08-1.6-5.47
		c-0.03-2.39,0.55-4.33,1.74-5.83C80.27,8.19,81.85,7.44,83.81,7.44z M80.31,10.63c-0.79,1.21-1.18,2.73-1.18,4.57
		c0,1.84,0.38,3.36,1.12,4.56s1.85,1.79,3.3,1.77c1.45-0.02,2.57-0.62,3.36-1.8c0.79-1.18,1.18-2.68,1.18-4.5
		c0-1.82-0.37-3.35-1.11-4.6s-1.84-1.87-3.3-1.85C82.23,8.81,81.1,9.42,80.31,10.63z"/>
</g>
<g id="Groupe_19" transform="translate(1158.744 441.411)">
	<line id="Ligne_48" class="st2" x1="-1157.68" y1="-429.38" x2="-1135.61" y2="-429.38"/>
	<circle id="Ellipse_4" class="st2" cx="-1138.49" cy="-429.38" r="10.63"/>
	<line id="Ligne_49" class="st2" x1="-1135.61" y1="-429.38" x2="-1140.96" y2="-434.73"/>
	<line id="Ligne_50" class="st2" x1="-1135.61" y1="-429.38" x2="-1140.96" y2="-424.03"/>
</g>
</svg>
