<?xml version="1.0" encoding="utf-8"?>
<!-- Generator: Adobe Illustrator 25.0.0, SVG Export Plug-In . SVG Version: 6.00 Build 0)  -->
<svg version="1.1" id="Calque_1" xmlns="http://www.w3.org/2000/svg" xmlns:xlink="http://www.w3.org/1999/xlink" x="0px" y="0px"
	 viewBox="0 0 710.26 736" style="enable-background:new 0 0 710.26 736;" xml:space="preserve">
<style type="text/css">
	.st0{fill:#F4F4F4;}
</style>
<g id="Groupe_4" transform="translate(53.902 0.002)">
	<path id="Tracé_17" class="st0" d="M656.36,421v314.81H516.67V475.19c0-156.93-186.3-145.17-186.3,0V736H190.64V223.53h139.73
		v82.42C395.55,185.35,656.36,176.49,656.36,421z"/>
	<path id="Tracé_18" class="st0" d="M109.12,82.42c-0.5,45.02-37.4,81.1-82.42,80.6c-45.02-0.5-81.1-37.4-80.6-82.42
		C-53.4,35.94-17.06,0,27.61,0c45.12,0.1,81.62,36.76,81.52,81.88C109.13,82.06,109.13,82.24,109.12,82.42z"/>
	<rect id="Rectangle_8" x="-42.22" y="223.53" class="st0" width="139.69" height="512.29"/>
</g>
</svg>
